<svg xmlns="http://www.w3.org/2000/svg" width="60" height="17" viewBox="0 0 60 17"><g transform="translate(7415 -1909)"><g transform="translate(-7415 1909)"><circle cx="8.5" cy="8.5" r="8.5" fill="#b4d2df"/><text transform="translate(6 11)" fill="#1b252a" font-size="11" font-family="BMJUA, BM JUA_TTF" letter-spacing="-0.025em"><tspan x="0" y="0">1</tspan></text><path d="M2.813-7.591a1.55,1.55,0,0,1,.241.018,1.132,1.132,0,0,1,.354.118.8.8,0,0,1,.36.387l.007.017a1.494,1.494,0,0,1,.093.389,3.252,3.252,0,0,1,.02.358c0,.108,0,.216-.006.321s-.005.177-.005.251V-.11c0,.073,0,.149.005.226a2.554,2.554,0,0,1-.007.322,1.208,1.208,0,0,1-.113.421.984.984,0,0,1-.319.379,1.167,1.167,0,0,1-.7.225,1.757,1.757,0,0,1-.619-.088A.827.827,0,0,1,1.562.75,2.362,2.362,0,0,1,1.513.289c-.051-.969-.075-1.931-.072-2.86,0-.7,0-1.427.005-2.165l-.161.027a2.21,2.21,0,0,1-.229.027,1.563,1.563,0,0,1-.74-.095.941.941,0,0,1-.583-.844,1.1,1.1,0,0,1,.308-.964A1.774,1.774,0,0,1,.757-7c.227-.078.451-.159.667-.24.236-.089.481-.169.729-.239L2.31-7.52c.048-.012.1-.023.146-.031a1.392,1.392,0,0,1,.276-.038Zm.057,1a.627.627,0,0,0-.09,0,.412.412,0,0,0-.079.009l-.025.007-.03.005c-.031.005-.062.012-.093.019l-.127.034c-.222.062-.439.134-.649.213-.227.086-.463.171-.7.252l-.014,0a.792.792,0,0,0-.322.178c-.023.023-.015.1-.012.13l0,.014c0,.014,0,.025,0,.034a.616.616,0,0,0,.232.013l.048,0c.011,0,.043,0,.12-.016s.18-.03.277-.05a1.8,1.8,0,0,0,.223-.06l.01,0a.367.367,0,0,0-.162.191l.964.186c0,.98,0,1.944-.005,2.867s.02,1.861.071,2.815V.275a1.336,1.336,0,0,0,.011.174.976.976,0,0,0,.2.014.241.241,0,0,0,.114-.02L2.859.426h0a.208.208,0,0,0,.017-.07,1.551,1.551,0,0,0,0-.2c0-.091-.006-.182-.006-.269V-5.731c0-.087,0-.183.006-.288s.005-.188.005-.284a2.248,2.248,0,0,0-.013-.247C2.873-6.564,2.871-6.577,2.869-6.588Z" transform="translate(6 11)" fill="rgba(0,0,0,0)"/></g><g transform="translate(-7393.851 1909)"><ellipse cx="9" cy="8.5" rx="9" ry="8.5" transform="translate(-0.149)" fill="#b4d2df"/><text transform="translate(5.851 11)" fill="#1b252a" font-size="11" font-family="BMJUA, BM JUA_TTF" letter-spacing="-0.025em"><tspan x="0" y="0">2</tspan></text><path d="M3.213-7.5l.107,0a3.081,3.081,0,0,1,.821.132,3.27,3.27,0,0,1,1.6,1.031,2.855,2.855,0,0,1,.6,1.856,4.123,4.123,0,0,1-.1.921,2.791,2.791,0,0,1-.348.838,4.373,4.373,0,0,1-.608.759,11.3,11.3,0,0,1-.864.779c-.094.081-.192.164-.291.245l.135,0a5.112,5.112,0,0,1,.61.012h.01a1.242,1.242,0,0,0,.171,0q.153-.006.306,0a1.912,1.912,0,0,1,.343.045.966.966,0,0,1,.427.216.961.961,0,0,1,.277.427,1.5,1.5,0,0,1,.075.42,1.558,1.558,0,0,1-.041.421.939.939,0,0,1-.229.437.923.923,0,0,1-.732.32c-.134,0-.263-.005-.383-.005H1.155c-.059,0-.124,0-.193.009a1.061,1.061,0,0,1-.414-.042A.7.7,0,0,1,0,.62c0-.1.005-.2.005-.3A1.531,1.531,0,0,1,.2-.436,2.51,2.51,0,0,1,.62-.986,4.814,4.814,0,0,1,1.1-1.41c.145-.111.282-.219.406-.323.2-.174.411-.35.638-.523s.416-.328.607-.49l.005,0c.245-.2.455-.39.624-.555a3.334,3.334,0,0,0,.378-.428,1.294,1.294,0,0,0,.176-.327.965.965,0,0,0,.05-.317.589.589,0,0,0-.173-.489.773.773,0,0,0-.537-.177,1.107,1.107,0,0,0-.5.114.932.932,0,0,0-.35.3c-.035.065-.069.132-.1.2a2.174,2.174,0,0,1-.174.3,1.143,1.143,0,0,1-.686.514,1.182,1.182,0,0,1-.747-.058,1.274,1.274,0,0,1-.567-.472,1.2,1.2,0,0,1-.2-.783A1.878,1.878,0,0,1,.07-5.453,2.886,2.886,0,0,1,.3-5.939,3.717,3.717,0,0,1,.6-6.358a2.649,2.649,0,0,1,.347-.359l.013-.01a3.443,3.443,0,0,1,.7-.425,3.815,3.815,0,0,1,.81-.266A3.661,3.661,0,0,1,3.213-7.5ZM3.1-1.381l.348-.283c.113-.092.223-.184.329-.276l.01-.008a10.335,10.335,0,0,0,.792-.712,3.381,3.381,0,0,0,.47-.583,1.794,1.794,0,0,0,.224-.537,3.129,3.129,0,0,0,.07-.7A1.864,1.864,0,0,0,4.969-5.7a2.262,2.262,0,0,0-1.126-.708A2.081,2.081,0,0,0,3.291-6.5a2.646,2.646,0,0,0-.62.056,2.814,2.814,0,0,0-.6.2,2.45,2.45,0,0,0-.491.3,1.666,1.666,0,0,0-.208.219,2.714,2.714,0,0,0-.213.306,1.884,1.884,0,0,0-.152.317.886.886,0,0,0-.058.243v.01a.207.207,0,0,0,.032.146.279.279,0,0,0,.126.111.179.179,0,0,0,.122.008c.009,0,.043-.024.09-.1L1.328-4.7a1.168,1.168,0,0,0,.1-.165c.044-.092.091-.183.139-.271l.013-.023.015-.022a1.938,1.938,0,0,1,.746-.649,2.114,2.114,0,0,1,.941-.216,1.751,1.751,0,0,1,1.2.428,1.582,1.582,0,0,1,.509,1.238,1.976,1.976,0,0,1-.1.64,2.287,2.287,0,0,1-.308.586,4.322,4.322,0,0,1-.491.562c-.188.184-.418.389-.683.609-.2.173-.42.348-.645.52-.21.161-.408.324-.589.484l-.011.01c-.137.114-.287.233-.446.355a3.812,3.812,0,0,0-.384.335,1.511,1.511,0,0,0-.252.33.536.536,0,0,0-.069.268q0,.021,0,.043c.051,0,.1,0,.149,0H5.1c.118,0,.244,0,.374,0A.555.555,0,0,0,5.49.222a.507.507,0,0,0-.02-.129A.92.92,0,0,0,5.325.076q-.111,0-.222,0A2.225,2.225,0,0,1,4.8.069,4.106,4.106,0,0,0,4.31.06c-.189.008-.385.011-.581.011-.148,0-.264,0-.347.01A2.828,2.828,0,0,1,2.922.07a.691.691,0,0,1-.541-.258A.543.543,0,0,1,2.3-.654a.814.814,0,0,1,.33-.432,3.508,3.508,0,0,1,.321-.206C3.056-1.351,3.092-1.376,3.1-1.381Z" transform="translate(5.851 11)" fill="rgba(0,0,0,0)"/></g><g transform="translate(-7372.42 1908.952)"><circle cx="8.5" cy="8.5" r="8.5" transform="translate(0.42 0.048)" fill="#b4d2df"/><text transform="translate(6.42 11.048)" fill="#1b252a" font-size="11" font-family="BMJUA, BM JUA_TTF" letter-spacing="-0.025em"><tspan x="0" y="0">3</tspan></text><path d="M2.073-7.426l.152,0c.127,0,.274.005.437.005.259,0,.546,0,.854.011s.6.019.878.034H4.4a3.056,3.056,0,0,1,.395.053,1.383,1.383,0,0,1,.464.182,1.187,1.187,0,0,1,.368.36,1.127,1.127,0,0,1,.174.557,1.57,1.57,0,0,1-.089.617,2.269,2.269,0,0,1-.247.487,3.2,3.2,0,0,1-.32.4c-.1.109-.2.21-.289.3-.138.144-.292.3-.46.455h0a2.857,2.857,0,0,1,.859.481,2.329,2.329,0,0,1,.623.8,2.588,2.588,0,0,1,.23,1.123A2.859,2.859,0,0,1,5.862-.366a2.919,2.919,0,0,1-.683.948A3.114,3.114,0,0,1,4.159,1.2a3.57,3.57,0,0,1-1.266.219,4.178,4.178,0,0,1-.619-.05,4.5,4.5,0,0,1-.65-.149A3.61,3.61,0,0,1,.992.964,2.222,2.222,0,0,1,.422.535,1.753,1.753,0,0,1,.111.1a1.5,1.5,0,0,1-.164-.56,1.1,1.1,0,0,1,.132-.636A1.023,1.023,0,0,1,.66-1.561l.007,0a1.322,1.322,0,0,1,.513-.068,1.43,1.43,0,0,1,.456.11,3.351,3.351,0,0,1,.33.162q.141.079.277.158l.012.007a1.459,1.459,0,0,0,.638.224.918.918,0,0,0,.571-.142.4.4,0,0,0,.161-.155.3.3,0,0,0,.04-.169A.4.4,0,0,0,3.6-1.623a.534.534,0,0,0-.179-.168.886.886,0,0,0-.294-.1L2.62-1.982a3.853,3.853,0,0,1-.556-.139,1.4,1.4,0,0,1-.613-.408.959.959,0,0,1-.228-.913,1.839,1.839,0,0,1,.337-.65,4.328,4.328,0,0,1,.46-.5c.14-.13.251-.239.33-.324l.014-.014.123-.125H2.024c-.1,0-.207,0-.326.005a3.817,3.817,0,0,1-.437-.013,3,3,0,0,1-.449-.073,1.175,1.175,0,0,1-.521-.27,1,1,0,0,1-.307-.766l0-.045a1.788,1.788,0,0,1,.061-.329A.961.961,0,0,1,.3-6.965l.017-.016a1.422,1.422,0,0,1,.794-.379c.191-.023.4-.042.619-.057h.013C1.857-7.424,1.97-7.426,2.073-7.426Zm2.264,1.05c-.264-.014-.549-.025-.845-.032s-.578-.011-.829-.011c-.173,0-.329,0-.465-.006-.119,0-.256,0-.409,0-.2.014-.39.032-.562.052a.421.421,0,0,0-.22.109.785.785,0,0,0-.021.109c0,.009,0,.016,0,.021a.265.265,0,0,0,.061.022,2,2,0,0,0,.3.048,2.815,2.815,0,0,0,.322.009c.129,0,.249-.006.356-.006h.737c.025,0,.072,0,.158,0a2.578,2.578,0,0,1,.266,0,.859.859,0,0,1,.389.111.583.583,0,0,1,.26.7,1.114,1.114,0,0,1-.159.329,3.113,3.113,0,0,1-.2.256c-.068.08-.141.161-.216.241s-.131.136-.183.189c-.1.1-.221.226-.378.372a3.324,3.324,0,0,0-.354.382.874.874,0,0,0-.152.275l.005.006a.4.4,0,0,0,.181.123,2.85,2.85,0,0,0,.412.1L3.3-2.88a1.893,1.893,0,0,1,.627.225l.007,0a1.533,1.533,0,0,1,.511.49,1.39,1.39,0,0,1,.22.65,1.3,1.3,0,0,1-.147.7,1.384,1.384,0,0,1-.543.56A1.918,1.918,0,0,1,2.794.025,2.468,2.468,0,0,1,1.733-.341L1.477-.488A2.346,2.346,0,0,0,1.246-.6a.426.426,0,0,0-.138-.033.321.321,0,0,0-.122.018A.232.232,0,0,0,.949-.6a.122.122,0,0,0-.006.056A.5.5,0,0,0,1-.355a.754.754,0,0,0,.135.189l.01.01a1.223,1.223,0,0,0,.317.237A2.607,2.607,0,0,0,1.918.27a3.5,3.5,0,0,0,.505.115,3.179,3.179,0,0,0,.47.038A2.576,2.576,0,0,0,3.805.269a2.12,2.12,0,0,0,.7-.422,1.9,1.9,0,0,0,.45-.625,1.842,1.842,0,0,0,.159-.773,1.607,1.607,0,0,0-.133-.692A1.318,1.318,0,0,0,4.622-2.7a1.861,1.861,0,0,0-.56-.311,3.492,3.492,0,0,0-.726-.173l-.982-.126.684-.716c.167-.175.359-.363.571-.56s.375-.358.529-.518l.008-.008c.083-.083.174-.177.268-.279a2.2,2.2,0,0,0,.219-.278,1.269,1.269,0,0,0,.138-.272A.562.562,0,0,0,4.8-6.168a.169.169,0,0,0-.013-.065.189.189,0,0,0-.061-.058.383.383,0,0,0-.13-.049A2.054,2.054,0,0,0,4.337-6.376Z" transform="translate(6.42 11.048)" fill="rgba(0,0,0,0)"/></g></g></svg>