<svg xmlns="http://www.w3.org/2000/svg" xmlns:xlink="http://www.w3.org/1999/xlink" width="80" height="80" viewBox="0 0 80 80"><defs><clipPath id="a"><rect width="80" height="80" fill="#2b2b2b"/></clipPath></defs><g clip-path="url(#a)"><path d="M36.787,1.378A35.408,35.408,0,1,0,72.2,36.785,35.447,35.447,0,0,0,36.787,1.378M16.5,16.438l-.083.09.083-.09M8.044,36.785a28.585,28.585,0,0,1,7-18.743,26.2,26.2,0,0,1,8.08,18.743,26.21,26.21,0,0,1-8.08,18.747,28.6,28.6,0,0,1-7-18.747m8.393,20.28.057.057-.057-.057m1.423,1.3a30.154,30.154,0,0,0,9.263-21.58A30.141,30.141,0,0,0,17.86,15.208a28.586,28.586,0,0,1,37.85,0,29.768,29.768,0,0,0,0,43.16,28.581,28.581,0,0,1-37.85,0m40.67-2.837a25.776,25.776,0,0,1,0-37.487,28.589,28.589,0,0,1,0,37.487" transform="translate(3.213 3.215)" fill="#2b2b2b"/></g></svg>