<svg xmlns="http://www.w3.org/2000/svg" xmlns:xlink="http://www.w3.org/1999/xlink" width="80" height="80" viewBox="0 0 80 80"><defs><clipPath id="a"><rect width="80" height="80" fill="none"/></clipPath></defs><g clip-path="url(#a)"><path d="M59.541,58.67H9.781a7.584,7.584,0,0,1-7.573-7.577V19.774A7.582,7.582,0,0,1,9.781,12.2h6.633L18.345,9a11.51,11.51,0,0,1,9.81-5.54H41.168A11.5,11.5,0,0,1,50.975,9l1.933,3.2h6.633a7.582,7.582,0,0,1,7.577,7.577v31.32a7.585,7.585,0,0,1-7.577,7.577M9.781,16.864a2.912,2.912,0,0,0-2.907,2.91v31.32A2.912,2.912,0,0,0,9.781,54h49.76a2.915,2.915,0,0,0,2.91-2.91V19.774a2.915,2.915,0,0,0-2.91-2.91h-7.95a2.341,2.341,0,0,1-2-1.13L46.978,11.4a6.82,6.82,0,0,0-5.81-3.28H28.155a6.82,6.82,0,0,0-5.81,3.28l-2.613,4.33a2.336,2.336,0,0,1-2,1.13Z" transform="translate(5.152 8.066)"/><path d="M23.317,39.867A16.167,16.167,0,1,1,39.487,23.7a16.186,16.186,0,0,1-16.17,16.163m0-25.667a9.5,9.5,0,1,0,9.5,9.5,9.511,9.511,0,0,0-9.5-9.5" transform="translate(16.683 17.579)"/></g></svg>