<svg xmlns="http://www.w3.org/2000/svg" xmlns:xlink="http://www.w3.org/1999/xlink" width="80" height="80" viewBox="0 0 80 80"><defs><clipPath id="a"><rect width="80" height="80" fill="#2b2b2b"/></clipPath></defs><g clip-path="url(#a)"><path d="M35.756,69.694a6.433,6.433,0,0,1-4.517-1.84l-5.727-5.63a1.77,1.77,0,0,0-1.23-.51l-8.033-.067a6.464,6.464,0,0,1-6.387-6.39L9.8,47.231a1.8,1.8,0,0,0-.507-1.237l-5.633-5.72a6.474,6.474,0,0,1,0-9.037L9.29,25.511a1.767,1.767,0,0,0,.507-1.23l.067-8.03A6.47,6.47,0,0,1,16.25,9.864l8.037-.07a1.794,1.794,0,0,0,1.23-.507L31.24,3.655a6.476,6.476,0,0,1,9.033,0L46,9.288a1.781,1.781,0,0,0,1.23.507l8.033.07a6.471,6.471,0,0,1,6.387,6.39l.067,8.03a1.762,1.762,0,0,0,.5,1.223l5.637,5.73a6.474,6.474,0,0,1,0,9.037L62.223,46a1.785,1.785,0,0,0-.507,1.237l-.067,8.027a6.464,6.464,0,0,1-6.39,6.387l-8.033.067a1.785,1.785,0,0,0-1.233.513l-5.72,5.627a6.453,6.453,0,0,1-4.517,1.84m0-63.22a1.767,1.767,0,0,0-1.243.507l-5.727,5.633a6.423,6.423,0,0,1-4.46,1.847l-8.037.07a1.774,1.774,0,0,0-1.757,1.753l-.07,8.037a6.417,6.417,0,0,1-1.85,4.467l-5.63,5.723a1.783,1.783,0,0,0,0,2.487l5.633,5.727a6.439,6.439,0,0,1,1.847,4.463l.07,8.033a1.774,1.774,0,0,0,1.753,1.757l8.037.07a6.415,6.415,0,0,1,4.457,1.847l5.733,5.633a1.777,1.777,0,0,0,2.487,0l5.727-5.63a6.429,6.429,0,0,1,4.46-1.85l8.037-.07a1.774,1.774,0,0,0,1.757-1.753l.07-8.033A6.427,6.427,0,0,1,58.9,42.728L64.53,37a1.783,1.783,0,0,0,0-2.487L58.9,28.785a6.413,6.413,0,0,1-1.847-4.46l-.07-8.037a1.774,1.774,0,0,0-1.757-1.757l-8.033-.07a6.41,6.41,0,0,1-4.46-1.847L37,6.981a1.767,1.767,0,0,0-1.243-.507" transform="translate(4.244 4.245)" fill="#2b2b2b"/><path d="M19.014,32.724h0a3.316,3.316,0,0,1-2.357-.973l-8.313-8.32a3.332,3.332,0,0,1,4.713-4.71l5.957,5.96L33.924,9.768a3.334,3.334,0,0,1,4.713,4.717L21.371,31.751a3.316,3.316,0,0,1-2.357.973" transform="translate(17.189 20.522)" fill="#2b2b2b"/></g></svg>