<svg xmlns="http://www.w3.org/2000/svg" xmlns:xlink="http://www.w3.org/1999/xlink" width="40" height="40" viewBox="0 0 40 40"><defs><clipPath id="a"><rect width="40" height="40" fill="#fff"/></clipPath></defs><g clip-path="url(#a)"><path d="M12.832,14.94H8.847A2.268,2.268,0,0,1,6.58,12.675V8.69A2.269,2.269,0,0,1,8.847,6.423h3.985A2.269,2.269,0,0,1,15.1,8.69v3.985a2.268,2.268,0,0,1-2.267,2.265M8.847,7.793a.9.9,0,0,0-.895.9v3.985a.9.9,0,0,0,.895.9h3.985a.9.9,0,0,0,.9-.9V8.69a.9.9,0,0,0-.9-.9Z" transform="translate(4.387 4.282)" fill="#fff"/><path d="M14.2,14.883h-.572a.83.83,0,0,1-.832-.83V13.48a.83.83,0,0,1,.832-.83H14.2a.83.83,0,0,1,.83.83v.573a.83.83,0,0,1-.83.83" transform="translate(8.529 8.433)" fill="#fff"/><path d="M10.088,10.765H9.2a.833.833,0,0,1-.833-.833V9.046A.832.832,0,0,1,9.2,8.213h.885a.833.833,0,0,1,.833.833v.885a.834.834,0,0,1-.833.833" transform="translate(5.58 5.475)" fill="#fff"/><path d="M18.484,14.928H14.5a2.268,2.268,0,0,1-2.267-2.265V8.678A2.269,2.269,0,0,1,14.5,6.411h3.985A2.269,2.269,0,0,1,20.75,8.678v3.985a2.268,2.268,0,0,1-2.267,2.265M14.5,7.781a.9.9,0,0,0-.9.9v3.985a.9.9,0,0,0,.9.9h3.985a.9.9,0,0,0,.9-.9V8.678a.9.9,0,0,0-.9-.9Z" transform="translate(8.155 4.274)" fill="#fff"/><path d="M15.741,10.753h-.885a.833.833,0,0,1-.833-.833V9.034a.832.832,0,0,1,.833-.833h.885a.833.833,0,0,1,.833.833v.885a.834.834,0,0,1-.833.833" transform="translate(9.349 5.467)" fill="#fff"/><path d="M12.789,20.624H8.8a2.268,2.268,0,0,1-2.267-2.265V14.374A2.269,2.269,0,0,1,8.8,12.107h3.987a2.27,2.27,0,0,1,2.267,2.267v3.985a2.269,2.269,0,0,1-2.267,2.265M8.8,13.477a.9.9,0,0,0-.895.9v3.985a.9.9,0,0,0,.895.9h3.987a.9.9,0,0,0,.9-.9V14.374a.9.9,0,0,0-.9-.9Z" transform="translate(4.357 8.071)" fill="#fff"/><path d="M10.046,16.449H9.159a.834.834,0,0,1-.833-.833V14.73a.833.833,0,0,1,.833-.833h.887a.833.833,0,0,1,.833.833v.885a.834.834,0,0,1-.833.833" transform="translate(5.551 9.265)" fill="#fff"/><path d="M16.844,14.883h-.572a.83.83,0,0,1-.832-.83V13.48a.83.83,0,0,1,.832-.83h.572a.83.83,0,0,1,.83.83v.573a.83.83,0,0,1-.83.83" transform="translate(10.294 8.433)" fill="#fff"/><path d="M14.2,17.567h-.572a.83.83,0,0,1-.832-.83v-.573a.83.83,0,0,1,.832-.83H14.2a.83.83,0,0,1,.83.83v.573a.83.83,0,0,1-.83.83" transform="translate(8.529 10.223)" fill="#fff"/><path d="M16.844,17.567h-.572a.83.83,0,0,1-.832-.83v-.573a.83.83,0,0,1,.832-.83h.572a.83.83,0,0,1,.83.83v.573a.83.83,0,0,1-.83.83" transform="translate(10.294 10.223)" fill="#fff"/><path d="M2.782,11.1a1.5,1.5,0,0,1-1.5-1.5V5.813a4.786,4.786,0,0,1,4.78-4.78H9.32a1.5,1.5,0,1,1,0,3H6.062a1.782,1.782,0,0,0-1.78,1.78V9.6a1.5,1.5,0,0,1-1.5,1.5" transform="translate(0.855 0.689)" fill="#fff"/><path d="M25.066,11.1a1.5,1.5,0,0,1-1.5-1.5V5.813a1.782,1.782,0,0,0-1.78-1.78H18.478a1.5,1.5,0,1,1,0-3h3.307a4.786,4.786,0,0,1,4.78,4.78V9.6a1.5,1.5,0,0,1-1.5,1.5" transform="translate(11.317 0.689)" fill="#fff"/><path d="M21.769,26.083H18.5a1.5,1.5,0,1,1,0-3h3.267a1.78,1.78,0,0,0,1.778-1.78V18.58a1.5,1.5,0,0,1,3,0V21.3a4.786,4.786,0,0,1-4.78,4.78" transform="translate(11.335 11.387)" fill="#fff"/><path d="M9.3,26.083H6.062a4.786,4.786,0,0,1-4.78-4.78V18.58a1.5,1.5,0,0,1,3,0V21.3a1.782,1.782,0,0,0,1.78,1.78H9.3a1.5,1.5,0,1,1,0,3" transform="translate(0.855 11.387)" fill="#fff"/></g></svg>
