<svg xmlns="http://www.w3.org/2000/svg" xmlns:xlink="http://www.w3.org/1999/xlink" width="390" height="287" viewBox="0 0 390 287"><defs><clipPath id="a"><rect width="390" height="287" transform="translate(0 186)" fill="#f8f8f8"/></clipPath></defs><g transform="translate(0 -186)" clip-path="url(#a)"><g transform="translate(-9.383 222.985)"><g transform="translate(-62.222 -169.248)"><path d="M37.633,162.051c9.413-6.524,23.892-3.957,30.491,5.4s4.146,23.862-5.161,30.535c8.74-4.042,20.476,3.328,20.632,12.956-.141-13.537,12-25.422,25.457-26.906s26.946,6.19,34.424,17.476,9.468,25.576,7.654,38.99-7.16,26.106-13.391,38.124A17.228,17.228,0,0,1,163.3,298.87c15.229-6.85,34.439-3.625,46.6,7.823-8.441-12.875-7.6-31.138,1.994-43.182s27.2-16.948,41.643-11.6c14.387,5.331,24.172,19.32,28.407,34.07s3.768,30.381,3.269,45.718a21.659,21.659,0,0,1,40.289,4.443c9.054-8.485,25.132-7.718,33.336,1.594-3.768-10.05-7.6-20.551-6.489-31.226s8.808-21.49,19.507-22.345c7.243-.578,14.24,3.5,18.933,9.052s7.465,12.429,10.037,19.223a15.147,15.147,0,0,1,22-18.729c-14.8-20.817-9.472-53.168,11.213-68.149s53.082-9.947,68.248,10.6c18.012,24.409,20.617,59.242,24.369,89.344s-2.849,63.04-24.387,84.4c-18.37,18.219-44.65,25.62-69.949,31.036a763.477,763.477,0,0,1-261.936,9.96C119.171,443.956,64.53,429.228,32.937,388.33c-24.02-31.1-30.524-72.921-26.071-111.959S23.4,198.673,37.633,162.051Z" transform="translate(0 0)" fill="#fff" opacity="0.69" style="mix-blend-mode:soft-light;isolation:isolate"/><path d="M32.541,207.6c12.226-3.429,26.251,7.045,26.436,19.742,2.385-12.758,16.258-21.481,29.159-20.087s23.906,11.332,28.79,23.356,4.311,25.723.789,38.214-9.808,24-16.249,35.268c13.176-4.185,26.9-8.419,40.588-6.463s27.26,12.07,28.37,25.849c14.992-12.446,40.922-7.463,50.236,9.652-7.986-7.3-7.432-21.252-.095-29.205s19.661-10.05,30-6.858,18.79,10.943,24.866,19.9,10.05,19.135,13.976,29.219a16.47,16.47,0,0,1,30.8-6.808c-6.6-5.57-9.026-15.831-4.926-23.433s14.706-11.134,22.219-6.876,9.681,15.939,3.7,22.173c7.9-8.892,23.187-9.778,32.061-1.86-9.626-13.1-6.7-33.7,6.2-43.595s33.553-7.395,43.714,5.3a11.243,11.243,0,1,1,20.116-9.989c-8.729-12.49-7.294-31.076,3.249-42.078s29.049-13.231,41.9-5.043c40.126,25.563,19.628,100.214-13.117,134.728-30.115,31.742-76.386,41.324-119.829,46.529a1037.269,1037.269,0,0,1-180.756,5.766c-35.006-1.943-71.061-6.012-101.608-23.218a131.026,131.026,0,0,1-62.587-83.84C2.553,278.933,12.016,237.057,32.541,207.6Z" transform="translate(2.59 58.131)" fill="#fff" opacity="0.87" style="mix-blend-mode:soft-light;isolation:isolate"/></g><g transform="translate(0 196.63)"><g transform="translate(0 5.773)"><path d="M181.521,248.977c2.218-15.166,33.224-27.189,71.153-27.189s68.935,12.023,71.153,27.189Z" transform="translate(-30.008 -206.562)" fill="#96b7ea"/><path d="M53.743,221.788c-20.656,0-39.491,2.8-53.743,7.39v19.8H134.105C131.6,233.811,96.582,221.788,53.743,221.788Z" transform="translate(0 -206.562)" fill="#96b7ea"/><path d="M94.55,245.961c7.418-24.145,42.063-42.415,83.69-42.415s76.273,18.27,83.69,42.415Z" transform="translate(-15.631 -203.546)" fill="#96b7ea"/><g transform="translate(55.616 -11.084)"><path d="M-128.235,274.92a13.727,13.727,0,0,0-1.1,9.859,9.277,9.277,0,0,0,3.4,5.265,7.059,7.059,0,0,0,6.313.856,7.058,7.058,0,0,0,4.348-4.656,13.938,13.938,0,0,0-.088-5.955l-1.339-8.369a5.093,5.093,0,0,0-.87-2.5c-1.514-1.836-4.208-.7-5.808.305A13.732,13.732,0,0,0-128.235,274.92Z" transform="translate(129.794 -268.445)" fill="#97a6d1"/><g transform="translate(8.381 2.973)"><path d="M-121.889,271.5a218.526,218.526,0,0,0,2.213,26.8c.048.333.556.191.507-.14a217.294,217.294,0,0,1-2.193-26.663.264.264,0,0,0-.527,0Z" transform="translate(121.889 -271.249)" fill="#283038"/></g><g transform="translate(4.791 13.145)"><path d="M-125.236,281.234a12.425,12.425,0,0,0,4.42,4.333.263.263,0,0,0,.265-.454,11.883,11.883,0,0,1-4.232-4.146.263.263,0,0,0-.454.266Z" transform="translate(125.276 -280.843)" fill="#283038"/></g><g transform="translate(8.852 6.026)"><path d="M-118.232,274.312a28.125,28.125,0,0,1-3.17,6.839c-.182.286.272.55.455.266a28.668,28.668,0,0,0,3.222-6.965c.1-.324-.407-.463-.507-.14Z" transform="translate(121.445 -274.129)" fill="#283038"/></g><g transform="translate(6.947 5.524)"><path d="M-123.167,274.1l1.551,1.712a.267.267,0,0,0,.372,0,.268.268,0,0,0,0-.372l-1.551-1.712a.267.267,0,0,0-.372,0,.268.268,0,0,0,0,.372Z" transform="translate(123.242 -273.656)" fill="#283038"/></g></g><path d="M-281.628,616.83a1.174,1.174,0,0,0-.211-1.372,1.174,1.174,0,0,0-1.38-.151,9.39,9.39,0,0,0,1.037-3.142,3.187,3.187,0,0,0-1.21-2.931,3.179,3.179,0,0,0-2.991-.083A9.388,9.388,0,0,0-288.878,611a2.451,2.451,0,0,0-2.111-2.33,3.052,3.052,0,0,0-2.9,1.465,4.076,4.076,0,0,0-.33,3.318,1.268,1.268,0,0,0-1.726-.457,2.368,2.368,0,0,0-1.061,1.628,4.344,4.344,0,0,0,.311,2.746c2.422.064,5,.207,7.421.271A23.7,23.7,0,0,0-281.628,616.83Z" transform="translate(362.14 -596.453)" fill="#637cbf"/></g><g transform="translate(14.954 19.341)"><path d="M19.295,227.625a2.308,2.308,0,0,1-1.336-2.4,2.729,2.729,0,0,1,2.254-1.83c.644-.109,1.315-.041,1.969-.1a1.928,1.928,0,0,0,1.583-.8c.3-.634-.311-1.37-.012-2s1.386-.814,2.2-.592a11.541,11.541,0,0,1,2.169,1.082,7.387,7.387,0,0,0,2.885.77c.834.051,1.683-.032,2.5.1s1.656.542,1.839,1.191c.152.539-.164,1.151.173,1.633s1.18.587,1.743.931a1.28,1.28,0,0,1,.29,2.028Z" transform="translate(-17.915 -219.801)" fill="#96b7ea"/></g><g transform="translate(44.539 32.925) rotate(167)"><path d="M31.684,204.725a23.7,23.7,0,0,0,2.761,16.232c4.748,8.1,10.089,5.7,10.089,5.7s5.744-1.713,1-9.818S31.684,204.725,31.684,204.725Z" transform="translate(-31.272 -204.725)" fill="#96b7ea"/></g><g transform="matrix(0.574, 0.819, -0.819, 0.574, 47.941, 3.9)"><path d="M49.357,196.63s7.225,8.041,7.122,18.72-7.4,10.181-7.4,10.181-7.307.409-7.2-10.271S49.357,196.63,49.357,196.63Z" transform="matrix(-1, 0.017, -0.017, -1, 62.157, 230.645)" fill="#96b7ea"/></g><g transform="translate(14.954 19.341)"><path d="M19.295,227.625a2.308,2.308,0,0,1-1.336-2.4,2.729,2.729,0,0,1,2.254-1.83c.644-.109,1.315-.041,1.969-.1a1.928,1.928,0,0,0,1.583-.8c.3-.634-.311-1.37-.012-2s1.386-.814,2.2-.592a11.541,11.541,0,0,1,2.169,1.082,7.387,7.387,0,0,0,2.885.77c.834.051,1.683-.032,2.5.1s1.656.542,1.839,1.191c.152.539-.164,1.151.173,1.633s1.18.587,1.743.931a1.28,1.28,0,0,1,.29,2.028Z" transform="translate(-17.915 -219.801)" fill="#96b7ea"/></g></g><path d="M297.461,256.308a12.032,12.032,0,0,0,4.3-4.9c5.077-12.666-33.109-27.878-58.069-26.37-18.34,1.108-20.784,10.715-34.411,10.548-19.987-.244-25.224-21.036-45.165-21.472-15.238-.334-16.482,11.713-45.165,16.952-30.246,5.525-53.085-3.447-90.329.376A202.989,202.989,0,0,0,0,236.512v26.662C77.172,274.442,273.916,272.178,297.461,256.308Z" transform="translate(0 -2.89)" fill="#b0c8f7"/><path d="M438.976,211.481c-15.238-.334-16.483,11.713-45.165,16.952-30.246,5.525-53.085-3.447-90.329.376-31.273,3.211-63.462,14.5-59.144,22.226,8.015,14.35,143.449,19.371,238.373,15.018V232.889C463.9,231.7,458.43,211.907,438.976,211.481Z" transform="translate(-40.328 -2.454)" fill="#b0c8f7"/><g transform="translate(222.468 227.795)"><g transform="translate(96.908 -37.082)"><g transform="translate(10.023 0)"><path d="M-106.347,311.415a5.141,5.141,0,0,1,1.281-2.873,2.343,2.343,0,0,1,3-.276,21.452,21.452,0,0,1,1.156-10.2c.561-1.512,1.43-3.091,3-3.673a4.645,4.645,0,0,1,4.8,1.419,9.264,9.264,0,0,1,2.035,4.661,31.139,31.139,0,0,1-.483,12.656,70.015,70.015,0,0,1-3.082,9.739c-.778,2.016-1.45,4.63-3.223,6.073-2.878,2.341-4.811-.557-6.032-2.782a22.723,22.723,0,0,1-2.753-9.284A21.335,21.335,0,0,1-106.347,311.415Z" transform="translate(106.704 -294.173)" fill="#637cbf"/><g transform="translate(5.018 3.458)"><path d="M-96.667,297.686q-1.452,16.262-3.867,32.417-.678,4.531-1.432,9.05c-.055.331.452.474.507.14q2.686-16.109,4.415-32.358.491-4.62.9-9.249c.03-.337-.5-.335-.526,0Z" transform="translate(101.971 -297.434)" fill="#283038"/></g><g transform="translate(3.937 22.726)"><path d="M-102.969,315.92q1.568,3.736,3.135,7.474c.129.307.638.172.507-.14q-1.567-3.738-3.134-7.474c-.129-.307-.638-.173-.508.14Z" transform="translate(102.99 -315.606)" fill="#283038"/></g><g transform="translate(8.744 11.037)"><path d="M-94.819,304.763a50.644,50.644,0,0,1-3.6,8.145c-.164.3.291.563.454.266a51.563,51.563,0,0,0,3.657-8.271c.109-.321-.4-.459-.508-.14Z" transform="translate(98.457 -304.582)" fill="#283038"/></g></g><g transform="translate(0 14.376)"><path d="M-115.031,326.542a17.056,17.056,0,0,1-1.068-5.109,28.406,28.406,0,0,1,1.314-10.523,6.31,6.31,0,0,1,1.09-2.208,2.506,2.506,0,0,1,2.176-.951,3.612,3.612,0,0,1,2.185,1.725,30.086,30.086,0,0,1,4.1,8.148,16.179,16.179,0,0,1,.927,5.728c-.17,3.484-2.7,7.891-6.793,7.084C-113.175,330.027-114.3,328.381-115.031,326.542Z" transform="translate(116.156 -307.731)" fill="#97a6d1"/><g transform="translate(3.914 1.462)"><path d="M-112.453,309.433a69.768,69.768,0,0,1,2.51,26.1c-.032.337.494.335.526,0a70.159,70.159,0,0,0-2.529-26.242.263.263,0,0,0-.507.14Z" transform="translate(112.465 -309.109)" fill="#283038"/></g><g transform="translate(2.451 13.031)"><path d="M-113.814,320.419a13.427,13.427,0,0,0,4.311,4.94c.279.193.542-.262.266-.455a12.883,12.883,0,0,1-4.123-4.75c-.153-.3-.606-.036-.454.265Z" transform="translate(113.845 -320.021)" fill="#283038"/></g><g transform="translate(5.941 5.223)"><path d="M-109.292,312.844q-.625,2.379-1.251,4.759a.264.264,0,0,0,.508.14q.625-2.379,1.251-4.759a.264.264,0,0,0-.508-.14Z" transform="translate(110.553 -312.657)" fill="#283038"/></g></g></g><g transform="translate(0 4.563)"><path d="M379.032,275.352c-1.754-11.99-26.265-21.495-56.251-21.495s-54.5,9.5-56.251,21.495Z" transform="translate(-266.53 -241.819)" fill="#96b7ea"/><path d="M417.8,275.352h93.651V256.581a160.315,160.315,0,0,0-30.12-2.724C447.466,253.857,419.781,263.362,417.8,275.352Z" transform="translate(-291.538 -241.819)" fill="#96b7ea"/><path d="M443.862,272.968C438,253.879,410.608,239.435,377.7,239.435s-60.3,14.444-66.163,33.533Z" transform="translate(-273.97 -239.435)" fill="#96b7ea"/></g><g transform="translate(159.723 8.426)"><path d="M471.4,257.972a18.737,18.737,0,0,0-2.183-12.832c-3.753-6.408-7.976-4.51-7.976-4.51s-4.541,1.354-.787,7.762S471.4,257.972,471.4,257.972Z" transform="translate(-458.967 -240.367)" fill="#96b7ea"/></g><g transform="translate(167.608 2)"><path d="M473.265,256.819s5.713-6.357,5.631-14.8-5.851-8.049-5.851-8.049-5.777-.323-5.7,8.12S473.265,256.819,473.265,256.819Z" transform="translate(-467.349 -233.968)" fill="#96b7ea"/></g><g transform="translate(151.811 15.29)"><path d="M449.5,258.47a1.824,1.824,0,0,1-1.056-1.9,2.157,2.157,0,0,1,1.783-1.447c.509-.086,1.039-.033,1.556-.082a1.527,1.527,0,0,0,1.252-.634c.235-.5-.246-1.083-.009-1.584s1.1-.644,1.736-.467a9.1,9.1,0,0,1,1.714.855,5.83,5.83,0,0,0,2.28.609c.66.04,1.331-.025,1.98.076s1.31.428,1.454.942c.12.427-.13.91.137,1.292s.932.463,1.377.735a1.01,1.01,0,0,1,.23,1.6Z" transform="translate(-448.408 -252.286)" fill="#96b7ea"/></g></g></g><g transform="translate(-1122.383 -260.467)"><g transform="translate(-62.222 -169.248)"><path d="M37.633,162.051c9.413-6.524,23.892-3.957,30.491,5.4s4.146,23.862-5.161,30.535c8.74-4.042,20.476,3.328,20.632,12.956-.141-13.537,12-25.422,25.457-26.906s26.946,6.19,34.424,17.476,9.468,25.576,7.654,38.99-7.16,26.106-13.391,38.124A17.228,17.228,0,0,1,163.3,298.87c15.229-6.85,34.439-3.625,46.6,7.823-8.441-12.875-7.6-31.138,1.994-43.182s27.2-16.948,41.643-11.6c14.387,5.331,24.172,19.32,28.407,34.07s3.768,30.381,3.269,45.718a21.659,21.659,0,0,1,40.289,4.443c9.054-8.485,25.132-7.718,33.336,1.594-3.768-10.05-7.6-20.551-6.489-31.226s8.808-21.49,19.507-22.345c7.243-.578,14.24,3.5,18.933,9.052s7.465,12.429,10.037,19.223a15.147,15.147,0,0,1,22-18.729c-14.8-20.817-9.472-53.168,11.213-68.149s53.082-9.947,68.248,10.6c18.012,24.409,20.617,59.242,24.369,89.344s-2.849,63.04-24.387,84.4c-18.37,18.219-44.65,25.62-69.949,31.036a763.477,763.477,0,0,1-261.936,9.96C119.171,443.956,64.53,429.228,32.937,388.33c-24.02-31.1-30.524-72.921-26.071-111.959S23.4,198.673,37.633,162.051Z" transform="translate(0 0)" fill="#fff" opacity="0.69" style="mix-blend-mode:soft-light;isolation:isolate"/><path d="M32.541,207.6c12.226-3.429,26.251,7.045,26.436,19.742,2.385-12.758,16.258-21.481,29.159-20.087s23.906,11.332,28.79,23.356,4.311,25.723.789,38.214-9.808,24-16.249,35.268c13.176-4.185,26.9-8.419,40.588-6.463s27.26,12.07,28.37,25.849c14.992-12.446,40.922-7.463,50.236,9.652-7.986-7.3-7.432-21.252-.095-29.205s19.661-10.05,30-6.858,18.79,10.943,24.866,19.9,10.05,19.135,13.976,29.219a16.47,16.47,0,0,1,30.8-6.808c-6.6-5.57-9.026-15.831-4.926-23.433s14.706-11.134,22.219-6.876,9.681,15.939,3.7,22.173c7.9-8.892,23.187-9.778,32.061-1.86-9.626-13.1-6.7-33.7,6.2-43.595s33.553-7.395,43.714,5.3a11.243,11.243,0,1,1,20.116-9.989c-8.729-12.49-7.294-31.076,3.249-42.078s29.049-13.231,41.9-5.043c40.126,25.563,19.628,100.214-13.117,134.728-30.115,31.742-76.386,41.324-119.829,46.529a1037.269,1037.269,0,0,1-180.756,5.766c-35.006-1.943-71.061-6.012-101.608-23.218a131.026,131.026,0,0,1-62.587-83.84C2.553,278.933,12.016,237.057,32.541,207.6Z" transform="translate(2.59 58.131)" fill="#fff" opacity="0.87" style="mix-blend-mode:soft-light;isolation:isolate"/></g><g transform="translate(0 196.63)"><g transform="translate(0 5.773)"><path d="M181.521,248.977c2.218-15.166,33.224-27.189,71.153-27.189s68.935,12.023,71.153,27.189Z" transform="translate(-30.008 -206.562)" fill="#96b7ea"/><path d="M53.743,221.788c-20.656,0-39.491,2.8-53.743,7.39v19.8H134.105C131.6,233.811,96.582,221.788,53.743,221.788Z" transform="translate(0 -206.562)" fill="#96b7ea"/><path d="M94.55,245.961c7.418-24.145,42.063-42.415,83.69-42.415s76.273,18.27,83.69,42.415Z" transform="translate(-15.631 -203.546)" fill="#96b7ea"/><g transform="translate(55.616 -11.084)"><path d="M-128.235,274.92a13.727,13.727,0,0,0-1.1,9.859,9.277,9.277,0,0,0,3.4,5.265,7.059,7.059,0,0,0,6.313.856,7.058,7.058,0,0,0,4.348-4.656,13.938,13.938,0,0,0-.088-5.955l-1.339-8.369a5.093,5.093,0,0,0-.87-2.5c-1.514-1.836-4.208-.7-5.808.305A13.732,13.732,0,0,0-128.235,274.92Z" transform="translate(129.794 -268.445)" fill="#97a6d1"/><g transform="translate(8.381 2.973)"><path d="M-121.889,271.5a218.526,218.526,0,0,0,2.213,26.8c.048.333.556.191.507-.14a217.294,217.294,0,0,1-2.193-26.663.264.264,0,0,0-.527,0Z" transform="translate(121.889 -271.249)" fill="#283038"/></g><g transform="translate(4.791 13.145)"><path d="M-125.236,281.234a12.425,12.425,0,0,0,4.42,4.333.263.263,0,0,0,.265-.454,11.883,11.883,0,0,1-4.232-4.146.263.263,0,0,0-.454.266Z" transform="translate(125.276 -280.843)" fill="#283038"/></g><g transform="translate(8.852 6.026)"><path d="M-118.232,274.312a28.125,28.125,0,0,1-3.17,6.839c-.182.286.272.55.455.266a28.668,28.668,0,0,0,3.222-6.965c.1-.324-.407-.463-.507-.14Z" transform="translate(121.445 -274.129)" fill="#283038"/></g><g transform="translate(6.947 5.524)"><path d="M-123.167,274.1l1.551,1.712a.267.267,0,0,0,.372,0,.268.268,0,0,0,0-.372l-1.551-1.712a.267.267,0,0,0-.372,0,.268.268,0,0,0,0,.372Z" transform="translate(123.242 -273.656)" fill="#283038"/></g></g><path d="M-281.628,616.83a1.174,1.174,0,0,0-.211-1.372,1.174,1.174,0,0,0-1.38-.151,9.39,9.39,0,0,0,1.037-3.142,3.187,3.187,0,0,0-1.21-2.931,3.179,3.179,0,0,0-2.991-.083A9.388,9.388,0,0,0-288.878,611a2.451,2.451,0,0,0-2.111-2.33,3.052,3.052,0,0,0-2.9,1.465,4.076,4.076,0,0,0-.33,3.318,1.268,1.268,0,0,0-1.726-.457,2.368,2.368,0,0,0-1.061,1.628,4.344,4.344,0,0,0,.311,2.746c2.422.064,5,.207,7.421.271A23.7,23.7,0,0,0-281.628,616.83Z" transform="translate(362.14 -596.453)" fill="#637cbf"/></g><g transform="translate(14.954 19.341)"><path d="M19.295,227.625a2.308,2.308,0,0,1-1.336-2.4,2.729,2.729,0,0,1,2.254-1.83c.644-.109,1.315-.041,1.969-.1a1.928,1.928,0,0,0,1.583-.8c.3-.634-.311-1.37-.012-2s1.386-.814,2.2-.592a11.541,11.541,0,0,1,2.169,1.082,7.387,7.387,0,0,0,2.885.77c.834.051,1.683-.032,2.5.1s1.656.542,1.839,1.191c.152.539-.164,1.151.173,1.633s1.18.587,1.743.931a1.28,1.28,0,0,1,.29,2.028Z" transform="translate(-17.915 -219.801)" fill="#96b7ea"/></g><g transform="translate(44.539 32.925) rotate(167)"><path d="M31.684,204.725a23.7,23.7,0,0,0,2.761,16.232c4.748,8.1,10.089,5.7,10.089,5.7s5.744-1.713,1-9.818S31.684,204.725,31.684,204.725Z" transform="translate(-31.272 -204.725)" fill="#96b7ea"/></g><g transform="matrix(0.574, 0.819, -0.819, 0.574, 47.941, 3.9)"><path d="M49.357,196.63s7.225,8.041,7.122,18.72-7.4,10.181-7.4,10.181-7.307.409-7.2-10.271S49.357,196.63,49.357,196.63Z" transform="matrix(-1, 0.017, -0.017, -1, 62.157, 230.645)" fill="#96b7ea"/></g><g transform="translate(14.954 19.341)"><path d="M19.295,227.625a2.308,2.308,0,0,1-1.336-2.4,2.729,2.729,0,0,1,2.254-1.83c.644-.109,1.315-.041,1.969-.1a1.928,1.928,0,0,0,1.583-.8c.3-.634-.311-1.37-.012-2s1.386-.814,2.2-.592a11.541,11.541,0,0,1,2.169,1.082,7.387,7.387,0,0,0,2.885.77c.834.051,1.683-.032,2.5.1s1.656.542,1.839,1.191c.152.539-.164,1.151.173,1.633s1.18.587,1.743.931a1.28,1.28,0,0,1,.29,2.028Z" transform="translate(-17.915 -219.801)" fill="#96b7ea"/></g></g><path d="M297.461,256.308a12.032,12.032,0,0,0,4.3-4.9c5.077-12.666-33.109-27.878-58.069-26.37-18.34,1.108-20.784,10.715-34.411,10.548-19.987-.244-25.224-21.036-45.165-21.472-15.238-.334-16.482,11.713-45.165,16.952-30.246,5.525-53.085-3.447-90.329.376A202.989,202.989,0,0,0,0,236.512v26.662C77.172,274.442,273.916,272.178,297.461,256.308Z" transform="translate(0 -2.89)" fill="#b0c8f7"/><path d="M438.976,211.481c-15.238-.334-16.483,11.713-45.165,16.952-30.246,5.525-53.085-3.447-90.329.376-31.273,3.211-63.462,14.5-59.144,22.226,8.015,14.35,143.449,19.371,238.373,15.018V232.889C463.9,231.7,458.43,211.907,438.976,211.481Z" transform="translate(-40.328 -2.454)" fill="#b0c8f7"/><g transform="translate(222.468 227.795)"><g transform="translate(96.908 -37.082)"><g transform="translate(10.023 0)"><path d="M-106.347,311.415a5.141,5.141,0,0,1,1.281-2.873,2.343,2.343,0,0,1,3-.276,21.452,21.452,0,0,1,1.156-10.2c.561-1.512,1.43-3.091,3-3.673a4.645,4.645,0,0,1,4.8,1.419,9.264,9.264,0,0,1,2.035,4.661,31.139,31.139,0,0,1-.483,12.656,70.015,70.015,0,0,1-3.082,9.739c-.778,2.016-1.45,4.63-3.223,6.073-2.878,2.341-4.811-.557-6.032-2.782a22.723,22.723,0,0,1-2.753-9.284A21.335,21.335,0,0,1-106.347,311.415Z" transform="translate(106.704 -294.173)" fill="#637cbf"/><g transform="translate(5.018 3.458)"><path d="M-96.667,297.686q-1.452,16.262-3.867,32.417-.678,4.531-1.432,9.05c-.055.331.452.474.507.14q2.686-16.109,4.415-32.358.491-4.62.9-9.249c.03-.337-.5-.335-.526,0Z" transform="translate(101.971 -297.434)" fill="#283038"/></g><g transform="translate(3.937 22.726)"><path d="M-102.969,315.92q1.568,3.736,3.135,7.474c.129.307.638.172.507-.14q-1.567-3.738-3.134-7.474c-.129-.307-.638-.173-.508.14Z" transform="translate(102.99 -315.606)" fill="#283038"/></g><g transform="translate(8.744 11.037)"><path d="M-94.819,304.763a50.644,50.644,0,0,1-3.6,8.145c-.164.3.291.563.454.266a51.563,51.563,0,0,0,3.657-8.271c.109-.321-.4-.459-.508-.14Z" transform="translate(98.457 -304.582)" fill="#283038"/></g></g><g transform="translate(0 14.376)"><path d="M-115.031,326.542a17.056,17.056,0,0,1-1.068-5.109,28.406,28.406,0,0,1,1.314-10.523,6.31,6.31,0,0,1,1.09-2.208,2.506,2.506,0,0,1,2.176-.951,3.612,3.612,0,0,1,2.185,1.725,30.086,30.086,0,0,1,4.1,8.148,16.179,16.179,0,0,1,.927,5.728c-.17,3.484-2.7,7.891-6.793,7.084C-113.175,330.027-114.3,328.381-115.031,326.542Z" transform="translate(116.156 -307.731)" fill="#97a6d1"/><g transform="translate(3.914 1.462)"><path d="M-112.453,309.433a69.768,69.768,0,0,1,2.51,26.1c-.032.337.494.335.526,0a70.159,70.159,0,0,0-2.529-26.242.263.263,0,0,0-.507.14Z" transform="translate(112.465 -309.109)" fill="#283038"/></g><g transform="translate(2.451 13.031)"><path d="M-113.814,320.419a13.427,13.427,0,0,0,4.311,4.94c.279.193.542-.262.266-.455a12.883,12.883,0,0,1-4.123-4.75c-.153-.3-.606-.036-.454.265Z" transform="translate(113.845 -320.021)" fill="#283038"/></g><g transform="translate(5.941 5.223)"><path d="M-109.292,312.844q-.625,2.379-1.251,4.759a.264.264,0,0,0,.508.14q.625-2.379,1.251-4.759a.264.264,0,0,0-.508-.14Z" transform="translate(110.553 -312.657)" fill="#283038"/></g></g></g><g transform="translate(0 4.563)"><path d="M379.032,275.352c-1.754-11.99-26.265-21.495-56.251-21.495s-54.5,9.5-56.251,21.495Z" transform="translate(-266.53 -241.819)" fill="#96b7ea"/><path d="M417.8,275.352h93.651V256.581a160.315,160.315,0,0,0-30.12-2.724C447.466,253.857,419.781,263.362,417.8,275.352Z" transform="translate(-291.538 -241.819)" fill="#96b7ea"/><path d="M443.862,272.968C438,253.879,410.608,239.435,377.7,239.435s-60.3,14.444-66.163,33.533Z" transform="translate(-273.97 -239.435)" fill="#96b7ea"/></g><g transform="translate(159.723 8.426)"><path d="M471.4,257.972a18.737,18.737,0,0,0-2.183-12.832c-3.753-6.408-7.976-4.51-7.976-4.51s-4.541,1.354-.787,7.762S471.4,257.972,471.4,257.972Z" transform="translate(-458.967 -240.367)" fill="#96b7ea"/></g><g transform="translate(167.608 2)"><path d="M473.265,256.819s5.713-6.357,5.631-14.8-5.851-8.049-5.851-8.049-5.777-.323-5.7,8.12S473.265,256.819,473.265,256.819Z" transform="translate(-467.349 -233.968)" fill="#96b7ea"/></g><g transform="translate(151.811 15.29)"><path d="M449.5,258.47a1.824,1.824,0,0,1-1.056-1.9,2.157,2.157,0,0,1,1.783-1.447c.509-.086,1.039-.033,1.556-.082a1.527,1.527,0,0,0,1.252-.634c.235-.5-.246-1.083-.009-1.584s1.1-.644,1.736-.467a9.1,9.1,0,0,1,1.714.855,5.83,5.83,0,0,0,2.28.609c.66.04,1.331-.025,1.98.076s1.31.428,1.454.942c.12.427-.13.91.137,1.292s.932.463,1.377.735a1.01,1.01,0,0,1,.23,1.6Z" transform="translate(-448.408 -252.286)" fill="#96b7ea"/></g></g></g></g></svg>