<svg xmlns="http://www.w3.org/2000/svg" width="149.502" height="92" viewBox="0 0 149.502 92"><g transform="translate(-690.35 -97.822)"><path d="M759.964,128.039a45.95,45.95,0,0,0-41.554,26.332h7.527a45.967,45.967,0,0,1,72.578,16.653h7.316A45.97,45.97,0,0,0,759.964,128.039Z" transform="translate(6.641 7.151)" fill="#c7daff" opacity="0.23"/><path d="M756.06,172.02" transform="translate(15.551 17.559)" fill="#efc12d"/><path d="M836.141,186.838a3.71,3.71,0,0,1-3.71-3.71,67.331,67.331,0,1,0-134.662,0,3.71,3.71,0,0,1-7.42,0,74.751,74.751,0,1,1,149.5,0A3.71,3.71,0,0,1,836.141,186.838Z" transform="translate(0 2.498)" fill="#ffa539"/><g opacity="0.3"><g transform="translate(707.02 184.967)"><path d="M705.685,172a1.882,1.882,0,0,1-1.323-.544,1.837,1.837,0,0,1-.532-1.311,1.839,1.839,0,0,1,2.214-1.818,1.832,1.832,0,0,1,.345.111,1.374,1.374,0,0,1,.323.173,1.533,1.533,0,0,1,.272.223,1.888,1.888,0,0,1,.557,1.311,1.865,1.865,0,0,1-.557,1.311,2.479,2.479,0,0,1-.272.235c-.113.062-.21.124-.323.173a1.782,1.782,0,0,1-.345.1A1.86,1.86,0,0,1,705.685,172Z" transform="translate(-703.83 -168.291)" fill="#193f87"/></g><g transform="translate(709.76 128.501)"><path d="M707.337,165.27a1.859,1.859,0,0,1-1.2-2.337h0a1.864,1.864,0,0,1,2.337-1.2h0a1.849,1.849,0,0,1,1.187,2.337h.011a1.86,1.86,0,0,1-1.767,1.286h0A1.811,1.811,0,0,1,707.337,165.27ZM813.552,164a1.844,1.844,0,0,1,1.187-2.337h0a1.849,1.849,0,0,1,2.338,1.187h0a1.848,1.848,0,0,1-1.187,2.337h0a1.836,1.836,0,0,1-.569.1h0A1.885,1.885,0,0,1,813.552,164ZM714.83,149.267a1.855,1.855,0,0,1-.408-2.585h0a1.861,1.861,0,0,1,2.6-.408h0a1.855,1.855,0,0,1,.408,2.585h0a1.863,1.863,0,0,1-1.509.767h0A1.824,1.824,0,0,1,714.83,149.267Zm90.943-.47a1.844,1.844,0,0,1,.409-2.585h0a1.841,1.841,0,0,1,2.583.4h0a1.867,1.867,0,0,1-.395,2.6h0a1.916,1.916,0,0,1-1.1.359h0A1.858,1.858,0,0,1,805.773,148.8Zm-78.86-12.428a1.843,1.843,0,0,1,.408-2.585h0a1.851,1.851,0,0,1,2.585.4h0a1.866,1.866,0,0,1-.4,2.6h0a1.918,1.918,0,0,1-1.1.359h0A1.858,1.858,0,0,1,726.913,136.369Zm66.767.359v.012a1.859,1.859,0,0,1-.408-2.6h0a1.843,1.843,0,0,1,2.585-.408h0a1.843,1.843,0,0,1,.408,2.585h0a1.824,1.824,0,0,1-1.5.767h0A1.82,1.82,0,0,1,793.68,136.728Zm-51.309-8.916a1.869,1.869,0,0,1,1.2-2.337h0a1.87,1.87,0,0,1,2.337,1.2h0a1.87,1.87,0,0,1-1.2,2.337h0a1.817,1.817,0,0,1-.569.087h0A1.863,1.863,0,0,1,742.372,127.812Zm36.085,1.175a1.848,1.848,0,0,1-1.187-2.337h0a1.859,1.859,0,0,1,2.337-1.2h0a1.858,1.858,0,0,1,1.187,2.337h0a1.84,1.84,0,0,1-1.768,1.286h0A1.872,1.872,0,0,1,778.457,128.986Zm-18.735-4.5a1.853,1.853,0,0,1,1.855-1.855h0a1.852,1.852,0,0,1,1.855,1.855h0a1.852,1.852,0,0,1-1.855,1.855h0A1.86,1.86,0,0,1,759.722,124.485Z" transform="translate(-706.045 -122.63)" fill="#193f87"/></g><g transform="translate(819.949 184.972)"><path d="M797,172a1.784,1.784,0,0,1-.359-.037,2.868,2.868,0,0,1-.345-.1,2.677,2.677,0,0,1-.323-.173,2.707,2.707,0,0,1-.283-.235,1.818,1.818,0,0,1-.507-1.669,1.554,1.554,0,0,1,.111-.346,1.613,1.613,0,0,1,.159-.322,2.775,2.775,0,0,1,.236-.284,1.644,1.644,0,0,1,.283-.223,2.024,2.024,0,0,1,.668-.284,1.887,1.887,0,0,1,1.671.507,2.457,2.457,0,0,1,.234.284,1.507,1.507,0,0,1,.162.322,1.7,1.7,0,0,1,.111.346,1.856,1.856,0,0,1,.036.359,1.831,1.831,0,0,1-.543,1.311A1.854,1.854,0,0,1,797,172Z" transform="translate(-795.149 -168.294)" fill="#193f87"/></g></g><g transform="translate(752.922 97.822)"><rect width="24.356" height="10.75" rx="4.018" fill="#d87512"/></g><g transform="translate(730.711 140.429)"><path d="M779.184,139.3l-2.421-7.02-7.2,3.355,2.766,1.073-13.743,35.358a4.725,4.725,0,0,0-2.672,1.258l-28.343-5.407.383-2.008-4.97,2.808,3.538,4.974.427-2.241,27.467,5.24c0,.015,0,.03,0,.046a4.724,4.724,0,1,0,8.471-2.848l13.82-35.551Z" transform="translate(-722.987 -132.276)" fill="#7966ff"/><circle cx="6" cy="6" r="6" transform="translate(30.389 37.393)" fill="#193f87"/></g></g></svg>