<svg xmlns="http://www.w3.org/2000/svg" xmlns:xlink="http://www.w3.org/1999/xlink" width="390" height="295" viewBox="0 0 390 295"><defs><clipPath id="a"><rect width="390" height="295" transform="translate(0 -371)" fill="#f8f8f8"/></clipPath></defs><g transform="translate(0 371)" clip-path="url(#a)"><g transform="translate(-54.049 -516.786)" opacity="0.69" style="mix-blend-mode:soft-light;isolation:isolate"><path d="M441.075,122.192c-34.928-1.037-68.793,11.2-101.079,24.573s-64.573,28.212-99.207,32.847c-11.483,1.536-25.544.689-31.31-9.358-4.192-7.31-2.1-16.56-4.1-24.745-2.664-10.855-12.529-18.813-23.2-22.124s-22.134-2.731-33.263-1.692A441.63,441.63,0,0,0,16.675,155.236L8.253,256.119C25.9,244.463,43.8,232.682,63.824,225.873s42.753-8.2,61.892.808c12.425,5.849,22.665,15.7,35.214,21.275,21.8,9.682,47.787,4.974,68.8-6.307s38.158-28.433,55.391-44.924,35.362-32.87,57.388-42.023a103.786,103.786,0,0,1,138.758,64.449c15.037-15.564,30.98-31.6,46.02-47.169C512.5,140.321,476.005,123.228,441.075,122.192Z" transform="translate(7.021)" fill="#fff" opacity="0.66"/><path d="M1.973,277.438l-.728-.685A122.5,122.5,0,0,1,28.919,254.87a132.969,132.969,0,0,1,67.691-17.9,122.483,122.483,0,0,1,34.872,5.339c9.689,2.983,19.134,7.176,28.268,11.23,12.2,5.417,24.825,11.019,38.067,13.73a87.5,87.5,0,0,0,17.542,1.752c29.685,0,59.667-14.485,77.109-38.476,7.153-9.838,12.384-21.11,17.442-32.011,4.48-9.653,9.112-19.635,15.078-28.642a75.861,75.861,0,0,1,11.425-13.5,66.372,66.372,0,0,1,14.33-10.322c11.248-5.921,22.547-7.123,32.673-3.475a37.856,37.856,0,0,1,10.249,5.626,52,52,0,0,1,8.324,8.088c5.039,6.012,9.314,13.243,13.447,20.236a175.651,175.651,0,0,0,11.75,18.148c14.567,18.795,38.257,29.554,61.876,29.554a73.722,73.722,0,0,0,24.3-4.041l.329.944a74.159,74.159,0,0,1-23.763,4.07,82.211,82.211,0,0,1-45.813-13.563A74.151,74.151,0,0,1,426.4,195.3a176.412,176.412,0,0,1-11.821-18.252c-4.113-6.958-8.366-14.153-13.353-20.1a51.013,51.013,0,0,0-8.164-7.935,36.873,36.873,0,0,0-9.982-5.481c-21.876-7.88-45.014,8.425-57.256,26.91-5.924,8.945-10.54,18.892-15,28.511-5.079,10.944-10.33,22.261-17.541,32.178a90.937,90.937,0,0,1-18.938,19.156,99.156,99.156,0,0,1-49.821,19.33,90.943,90.943,0,0,1-26.9-1.37,125.374,125.374,0,0,1-19.48-5.853c-6.337-2.415-12.669-5.225-18.792-7.943-9.107-4.042-18.525-8.222-28.157-11.188a122.372,122.372,0,0,0-36.006-5.338C60.527,237.923,25.867,252.044,1.973,277.438Z" transform="translate(0.546 19.633)" fill="#fff"/><path d="M518.847,224.093c-21.759-11.25-48.075-3.223-71.112,5.1s-49.132,16.7-71.163,6c-15.738-7.644-26.1-23.757-41.873-31.322-18.185-8.72-40.392-4.255-57.812,5.906s-31.241,25.331-45.6,39.5-30.135,27.894-49.374,33.946-42.759,2.595-55.393-13.126c-7.839-9.753-10.618-22.813-18.418-32.6-12.5-15.677-35.6-19.429-54.994-14.35S17.119,240.465,1.049,252.45l2.233,80.337c19.755-20.116,51.444-27.5,78.054-18.181,20,7,36.628,22.337,57.255,27.207,26.03,6.143,53.571-5.966,73.094-24.243s32.726-42.114,46.509-65.034c9.723-16.169,23.467-34.061,42.311-33.147,15.442.748,26.988,14.109,35.568,26.968S353.41,273.64,367.983,278.8c19.867,7.04,40.5-6.031,60.6-12.365,31.614-9.96,67.425-1.605,92.134,20.489C520.164,265.656,519.4,245.363,518.847,224.093Z" transform="translate(0 76.359)" fill="#fff" opacity="0.66"/></g><g transform="translate(-35.422 -368.229)"><path d="M178.444,152.721h88.617c-1.865-3.795-6.935-6.149-10.839-4.526a25.723,25.723,0,0,0-.15-17.132,19.658,19.658,0,0,0-12.147-11.729c-6.413-1.97-13.581.018-18.989,3.985s-9.276,9.7-12.341,15.664c-3.15-4.611-10.2-5.407-14.989-2.539s-7.4,8.525-7.833,14.092a6.539,6.539,0,0,0-6.01-2.972C181.421,147.783,179.307,150.531,178.444,152.721Z" transform="translate(177.605 -6.435)" fill="#fff"/><path d="M187.238,142.775H74.179c3.584-4.753,10.1-7.407,15.864-5.912a22.26,22.26,0,0,1,26.787-31.9c8.528,3,14.417,10.85,18.42,18.954,1.83-5.393,7.516-9.015,13.208-9.039s11.139,3.223,14.414,7.882a25.163,25.163,0,0,1,4.091,16.238,7.985,7.985,0,0,1,15.529,1.956,2.766,2.766,0,0,1,3.316-1.02A2.379,2.379,0,0,1,187.238,142.775Z" transform="translate(-75.758 42.511)" fill="#fff"/><path d="M139.556,211.8l3.14-.21h63.689c-1.338-2.944-5.324-4.773-8.251-3.4a19.62,19.62,0,0,0-.211-12.7,15.843,15.843,0,0,0-8.7-9.085c-5.372-2.143-11.714-.755-16.442,2.574s-8.017,8.365-10.356,13.654a7.686,7.686,0,0,0-13.759,6.6,6.422,6.422,0,0,0-5.219-1.216C141.646,208.395,140.423,210.171,139.556,211.8Z" transform="translate(172.077 -5.593)" fill="#fff"/></g></g></svg>