<svg xmlns="http://www.w3.org/2000/svg" xmlns:xlink="http://www.w3.org/1999/xlink" width="220.975" height="123.34" viewBox="0 0 220.975 123.34"><defs><clipPath id="a"><ellipse cx="37.479" cy="37.48" rx="37.479" ry="37.48" fill="none"/></clipPath></defs><g transform="translate(-47.898 -99.268)"><g transform="translate(47.899 159.983)"><g transform="translate(0 23.397)"><path d="M99.7,359.553H51.212c-5.912,0-4.952-7.01,11.494-3.891-4.035-1.844-4.059-4.314-3.716-4.973a2.563,2.563,0,0,1,2.146-.936c2.092.179,3.68,1.462,5.513,2.486a11.77,11.77,0,0,1-5.243-10.067,4.18,4.18,0,0,1,1.071-2.99,4.423,4.423,0,0,1,3.565-1.143c2.219.44,4.1,2.224,5.724,3.8-8.287-7.622-9.24-17.711-3.935-20.451C76.761,316.772,84.477,334,84.965,336.76L99.7,359.553" transform="translate(-47.899 -320.604)" fill="#627fed"/></g><g transform="translate(12.344 0)"><path d="M148.232,321.382H85.686c-9.464,0-7.928-11.223,18.4-6.229-6.459-2.953-6.5-6.906-5.95-7.961.5-.969,2.348-1.592,3.436-1.5,3.349.287,5.891,2.34,8.825,3.979a18.844,18.844,0,0,1-8.393-16.118,6.693,6.693,0,0,1,1.715-4.787,7.08,7.08,0,0,1,5.706-1.83c3.553.705,6.56,3.561,9.164,6.079-13.266-12.2-14.794-28.355-6.3-32.741,14.3-7.384,22.446,20.424,23.227,24.848Z" transform="translate(-80.383 -259.036)" fill="#7a90f9"/></g><g transform="translate(155.843 13.649)"><path d="M457.994,343.929h60.965c7.433,0,6.227-8.815-14.452-4.893,5.073-2.319,5.1-5.425,4.673-6.253a3.222,3.222,0,0,0-2.7-1.177c-2.63.226-4.627,1.838-6.932,3.126a14.8,14.8,0,0,0,6.593-12.659,5.257,5.257,0,0,0-1.347-3.76,5.56,5.56,0,0,0-4.482-1.437c-2.791.554-5.153,2.8-7.2,4.775,10.42-9.584,11.619-22.271,4.949-25.716-11.231-5.8-20.932,15.859-21.546,19.334l-18.524,28.661" transform="translate(-457.994 -294.953)" fill="#7a90f9"/></g></g><g transform="translate(188.291 196.284)"><g transform="translate(0 14.661)"><rect width="33.208" height="8.653" transform="translate(22.692 1.505)" fill="#fff"/><rect width="20.785" height="8.653" transform="translate(22.693 10.158) rotate(180)" fill="#ededed"/><path d="M470.34,393.141v2.175h32.743a2.1,2.1,0,0,1,2.237,1.935v3.443a2.1,2.1,0,0,1-2.237,1.935H470.34V404.8h33.934a3.64,3.64,0,0,0,3.873-3.35v-4.963a3.64,3.64,0,0,0-3.873-3.35Z" transform="translate(-450.197 -393.141)" fill="#193f87"/><rect width="20.143" height="2.175" transform="translate(0 0)" fill="#193f87"/><rect width="20.143" height="2.175" transform="translate(0 9.488)" fill="#193f87"/><g transform="translate(1.908 3.93)"><path d="M20.785,1.093H0V-1.093H20.785Z" fill="#ccc"/><path d="M20.785,1.093H0V-1.093H20.785Z" transform="translate(0 2.393)" fill="#ccc"/><path d="M20.785,1.093H0V-1.093H20.785Z" transform="translate(0 4.377)" fill="#ccc"/></g><g transform="translate(22.692 3.514)"><path d="M503.28,402.8l-26.232.415v-.831Z" transform="translate(-477.048 -402.389)" fill="#e2e2e2"/><g transform="translate(0 2.393)"><path d="M505.989,409.1l-28.941.415v-.831Z" transform="translate(-477.048 -408.685)" fill="#e2e2e2"/></g><g transform="translate(0 4.377)"><path d="M503.28,414.323l-26.232.415v-.831Z" transform="translate(-477.048 -413.907)" fill="#e2e2e2"/></g></g></g><g transform="translate(5.048 0)"><path d="M7.13,0H29.454a0,0,0,0,1,0,0V14.661a0,0,0,0,1,0,0H7.129A7.129,7.129,0,0,1,0,7.531v-.4A7.13,7.13,0,0,1,7.13,0Z" transform="translate(0 0)" fill="#596fef"/><rect width="28.063" height="11.651" transform="translate(48.04 13.156) rotate(180)" fill="#fff"/><path d="M510.454,354.562v2.175h-27.6a2.1,2.1,0,0,0-2.237,1.935v6.441a2.1,2.1,0,0,0,2.237,1.935h27.6v2.175H481.665a3.64,3.64,0,0,1-3.873-3.35v-7.961a3.64,3.64,0,0,1,3.873-3.35Z" transform="translate(-459.864 -354.562)" fill="#7966ff"/><g transform="translate(22.587 3.514)"><g transform="translate(4.366)"><path d="M501.542,364.225l21.087-.415v.831Z" transform="translate(-501.542 -363.81)" fill="#e5e5e5"/></g><g transform="translate(0 1.571)"><path d="M490.052,368.359l25.454-.415v.831Z" transform="translate(-490.052 -367.944)" fill="#e5e5e5"/></g><g transform="translate(1.657 5.39)"><path d="M494.414,378.41l23.8-.415v.831Z" transform="translate(-494.414 -377.995)" fill="#e5e5e5"/></g><g transform="translate(4.366 7.375)"><path d="M501.542,383.633l21.087-.415v.831Z" transform="translate(-501.542 -383.218)" fill="#e5e5e5"/></g></g></g></g><g transform="translate(92.025 99.268)"><g transform="translate(12.037 16.935)"><path d="M199.946,147.257l84.663-1.423a1.788,1.788,0,0,1,1.821,1.777c.072,11.789.48,77.467.687,84.1.227,7.292,2.31,16.836-8.556,18.354-9.88,1.381-68.653-3.865-79.246-4.829a1.789,1.789,0,0,1-1.626-1.793l.5-94.406A1.791,1.791,0,0,1,199.946,147.257Z" transform="translate(-196.927 -145.073)" fill="#fefefe"/><path d="M272.127,249.813c-17.538,0-63.946-4.133-74.122-5.06a2.536,2.536,0,0,1-2.318-2.554l.5-94.406a2.565,2.565,0,0,1,2.508-2.537l84.663-1.423a2.549,2.549,0,0,1,2.594,2.532c.079,12.887.482,77.506.687,84.083.027.874.081,1.766.137,2.712.4,6.677.9,14.987-9.348,16.418A42.844,42.844,0,0,1,272.127,249.813ZM198.718,146.776h0A1.037,1.037,0,0,0,197.7,147.8l-.5,94.406a1.024,1.024,0,0,0,.936,1.032c11.494,1.046,69.321,6.2,79.072,4.834,8.853-1.237,8.441-8.143,8.041-14.822-.057-.957-.111-1.861-.139-2.755-.206-6.6-.609-71.231-.687-84.121a1.029,1.029,0,0,0-1.03-1.022h-.018Z" transform="translate(-195.687 -143.832)" fill="#7a90f9"/></g><g transform="translate(0 114.169)"><path d="M164.014,400.677s-.227,6.89,6.06,7.8,90.067-.032,90.067-.032-7.221-1.554-9.161-8.743Z" transform="translate(-164.013 -399.7)" fill="#1f323a"/></g><g transform="translate(21.136 34.33)"><g transform="translate(1.659 2.37)"><circle cx="5.994" cy="5.994" r="5.994" fill="#d8e0f7"/></g><g transform="translate(17.182 3.666)"><path d="M316.69,199.254H265.607a.76.76,0,0,0,0,1.52H316.69a.76.76,0,1,0,0-1.52Z" transform="translate(-264.847 -199.254)" fill="#d8e0f7"/><path d="M298.853,208.174H265.607a.76.76,0,0,0,0,1.52h33.246a.76.76,0,1,0,0-1.52Z" transform="translate(-264.847 -204.784)" fill="#d8e0f7"/></g><path d="M235.644,189.978a1.33,1.33,0,0,0-1.881.039l-7.727,8.055-4.319-2.979a1.33,1.33,0,1,0-1.51,2.19l6.182,4.263,9.293-9.689a1.33,1.33,0,0,0-.039-1.88Z" transform="translate(-219.633 -189.607)" fill="#7966ff"/></g><g transform="translate(22.416 53.603)"><rect width="13.315" height="13.315" rx="5.505" fill="#d8e0f7"/></g><g transform="translate(45.589 53.413)"><path d="M295.393,253.518h-9.131a2.284,2.284,0,0,1-2.282-2.282V242.1a2.285,2.285,0,0,1,2.282-2.282h9.131a2.285,2.285,0,0,1,2.282,2.282v9.131A2.285,2.285,0,0,1,295.393,253.518ZM286.262,240.2a1.9,1.9,0,0,0-1.9,1.9v9.131a1.9,1.9,0,0,0,1.9,1.9h9.131a1.9,1.9,0,0,0,1.9-1.9V242.1a1.9,1.9,0,0,0-1.9-1.9Z" transform="translate(-283.98 -239.823)" fill="#d8e0f7"/><path d="M295.393,253.518h-9.131a2.284,2.284,0,0,1-2.282-2.282V242.1a2.285,2.285,0,0,1,2.282-2.282h9.131a2.285,2.285,0,0,1,2.282,2.282v9.131A2.285,2.285,0,0,1,295.393,253.518ZM286.262,240.2a1.9,1.9,0,0,0-1.9,1.9v9.131a1.9,1.9,0,0,0,1.9,1.9h9.131a1.9,1.9,0,0,0,1.9-1.9V242.1a1.9,1.9,0,0,0-1.9-1.9Z" transform="translate(-283.98 -239.823)" fill="#d8e0f7"/></g><g transform="translate(22.416 74.627)"><rect width="13.315" height="13.315" rx="5.505" fill="#d8e0f7"/></g><g transform="translate(45.589 74.437)"><path d="M295.393,308.843h-9.131a2.285,2.285,0,0,1-2.282-2.282v-9.131a2.285,2.285,0,0,1,2.282-2.282h9.131a2.285,2.285,0,0,1,2.282,2.282v9.131A2.285,2.285,0,0,1,295.393,308.843Zm-9.131-13.316a1.9,1.9,0,0,0-1.9,1.9v9.131a1.9,1.9,0,0,0,1.9,1.9h9.131a1.9,1.9,0,0,0,1.9-1.9v-9.131a1.9,1.9,0,0,0-1.9-1.9Z" transform="translate(-283.98 -295.147)" fill="#d8e0f7"/><path d="M295.393,308.843h-9.131a2.285,2.285,0,0,1-2.282-2.282v-9.131a2.285,2.285,0,0,1,2.282-2.282h9.131a2.285,2.285,0,0,1,2.282,2.282v9.131A2.285,2.285,0,0,1,295.393,308.843Zm-9.131-13.316a1.9,1.9,0,0,0-1.9,1.9v9.131a1.9,1.9,0,0,0,1.9,1.9h9.131a1.9,1.9,0,0,0,1.9-1.9v-9.131a1.9,1.9,0,0,0-1.9-1.9Z" transform="translate(-283.98 -295.147)" fill="#d8e0f7"/></g><g transform="translate(22.416 95.652)"><rect width="13.315" height="13.315" rx="5.505" fill="#d8e0f7"/></g><g transform="translate(45.589 95.462)"><path d="M295.393,364.167h-9.131a2.285,2.285,0,0,1-2.282-2.282v-9.131a2.285,2.285,0,0,1,2.282-2.282h9.131a2.285,2.285,0,0,1,2.282,2.282v9.131A2.285,2.285,0,0,1,295.393,364.167Zm-9.131-13.315a1.9,1.9,0,0,0-1.9,1.9v9.131a1.9,1.9,0,0,0,1.9,1.9h9.131a1.9,1.9,0,0,0,1.9-1.9v-9.131a1.9,1.9,0,0,0-1.9-1.9Z" transform="translate(-283.98 -350.472)" fill="#d8e0f7"/><path d="M295.393,364.167h-9.131a2.285,2.285,0,0,1-2.282-2.282v-9.131a2.285,2.285,0,0,1,2.282-2.282h9.131a2.285,2.285,0,0,1,2.282,2.282v9.131A2.285,2.285,0,0,1,295.393,364.167Zm-9.131-13.315a1.9,1.9,0,0,0-1.9,1.9v9.131a1.9,1.9,0,0,0,1.9,1.9h9.131a1.9,1.9,0,0,0,1.9-1.9v-9.131a1.9,1.9,0,0,0-1.9-1.9Z" transform="translate(-283.98 -350.472)" fill="#d8e0f7"/></g><g transform="translate(38.762 0)"><g transform="translate(0 8.426)"><path d="M7.847,0H26.716a7.847,7.847,0,0,1,7.847,7.847v5.415a0,0,0,0,1,0,0H0a0,0,0,0,1,0,0V7.847A7.847,7.847,0,0,1,7.847,0Z" transform="translate(0 0.678) rotate(-1.124)" fill="#ffa539"/></g><g transform="translate(8.617)"><circle cx="7.435" cy="7.435" r="7.435" transform="translate(0 14.624) rotate(-79.568)" fill="#ffa539"/></g><g transform="translate(9.841 6.147)"><path d="M291.912,118.1c0,.027,0,.052.005.078l14.859-.291c0-.026,0-.052,0-.079a7.421,7.421,0,0,0-.44-2.366l-14.079.276A7.406,7.406,0,0,0,291.912,118.1Z" transform="translate(-291.91 -115.443)" fill="#d87512"/></g></g></g><g transform="translate(148.266 139.004)"><g transform="translate(0 0)"><path d="M472.174,406.736l-4.581-4.581a1.9,1.9,0,0,0-2.687,2.687l4.581,4.581a1.9,1.9,0,0,0,2.687-2.687Z" transform="translate(-406.455 -326.442)" fill="#ffa539"/><path d="M360.851,409.817l4.34-4.34a1.9,1.9,0,0,0-2.687-2.687l-4.34,4.34a1.9,1.9,0,0,0,2.687,2.687Z" transform="translate(-340.279 -326.836)" fill="#ffa539"/><circle cx="41.802" cy="41.802" r="41.802" transform="translate(0.32)" fill="#ffa539"/><rect width="20.356" height="8.75" rx="3" transform="translate(32.32 -9.735)" fill="#d87512"/><ellipse cx="37.479" cy="37.48" rx="37.479" ry="37.48" transform="translate(4.322 4.322)" fill="#f6f6f6"/><g transform="translate(4.322 4.322)" clip-path="url(#a)"><g transform="translate(-7.354 -18.279)"><rect width="107.753" height="6.404" transform="translate(0 76.197) rotate(-45.003)" fill="#fbfbfb"/></g><g transform="translate(-3.938 -4.584)"><rect width="107.754" height="32.024" transform="translate(0 76.194) rotate(-45)" fill="#fbfbfb"/></g></g><path d="M417.383,257.724v20.151a1.76,1.76,0,0,0,3.517,0V257.724a1.76,1.76,0,0,0-3.517,0Z" transform="translate(-377.34 -236.191)" fill="#7966ff"/><path d="M397.57,310.268l-12.413,12.413a1.76,1.76,0,0,0,2.487,2.487l12.413-12.414a1.76,1.76,0,0,0-2.487-2.487Z" transform="translate(-357.037 -269.5)" fill="#7966ff"/><path d="M473.292,257.231l-2.512,2.512a.5.5,0,0,0,.708.708L474,257.938a.5.5,0,0,0-.708-.708Z" transform="translate(-407.801 -239.826)" fill="#7966ff"/><path d="M367.922,362.6l-2.512,2.512a.5.5,0,0,0,.708.708l2.512-2.512a.5.5,0,0,0-.708-.708Z" transform="translate(-348.004 -299.622)" fill="#7966ff"/><path d="M474,365.113l-2.512-2.512a.5.5,0,0,0-.708.708l2.512,2.512a.5.5,0,0,0,.708-.708Z" transform="translate(-407.801 -299.622)" fill="#7966ff"/><path d="M368.63,259.743l-2.512-2.512a.5.5,0,0,0-.708.708l2.512,2.512a.5.5,0,0,0,.708-.708Z" transform="translate(-348.004 -239.826)" fill="#7966ff"/><path d="M419.474,391.821c2.576,0,2.58-4,0-4s-2.58,4,0,4Z" transform="translate(-377.67 -314.016)" fill="#7966ff"/><path d="M419.474,234.591c2.576,0,2.58-4,0-4s-2.58,4,0,4Z" transform="translate(-377.67 -224.79)" fill="#7966ff"/><path d="M340.858,313.206c2.576,0,2.58-4,0-4s-2.58,4,0,4Z" transform="translate(-333.057 -269.403)" fill="#7966ff"/><path d="M498.089,313.206c2.576,0,2.58-4,0-4s-2.58,4,0,4Z" transform="translate(-422.285 -269.403)" fill="#7966ff"/><circle cx="4.51" cy="4.51" r="4.51" transform="translate(37.293 37.292)" fill="#193f87"/></g></g></g></svg>