<svg xmlns="http://www.w3.org/2000/svg" width="92.229" height="33.942" viewBox="0 0 92.229 33.942">
  <g id="base" transform="translate(-5564.5 -3552.059)">
    <path id="패스_6721" data-name="패스 6721" d="M1.28,0H12.915V-2.785H5.975v-.09l2.471-2.4c3.347-3.032,4.245-4.548,4.245-6.4,0-2.819-2.313-4.807-5.795-4.807-3.425,0-5.784,2.033-5.772,5.211H4.335a2.33,2.33,0,0,1,2.516-2.516,2.329,2.329,0,0,1,2.583,2.336c0,1.292-.82,2.19-2.336,3.639L1.258-2.448ZM21.76-9.456H14.348v2.65H21.76ZM29.269.225c3.672,0,6.312-2,6.289-4.784.022-2.033-1.292-3.481-3.684-3.773v-.135A3.447,3.447,0,0,0,34.951-11.9c.011-2.572-2.246-4.582-5.638-4.582-3.335,0-5.851,1.943-5.907,4.739h3.234a2.39,2.39,0,0,1,2.673-2.044A2.111,2.111,0,0,1,31.695-11.7c.011,1.28-1.112,2.156-2.718,2.156h-1.5v2.493h1.5c1.909.011,3.088.943,3.077,2.269.011,1.314-1.146,2.212-2.763,2.224-1.572-.011-2.751-.809-2.808-2.021H23.07C23.137-1.741,25.7.225,29.269.225Z" transform="translate(5621.171 3578)" fill="#fff" opacity="0.2"/>
    <g id="그룹_8628" data-name="그룹 8628" transform="translate(421.5 4.059)">
      <g id="그룹_8627" data-name="그룹 8627" transform="translate(4945.941 3498.24)" opacity="0.2">
        <rect id="사각형_5828" data-name="사각형 5828" width="16" height="16" rx="4" transform="translate(208.372 61.074) rotate(-45)" fill="#fff"/>
        <path id="패스_6718" data-name="패스 6718" d="M4,1A3,3,0,0,0,1,4v8a3,3,0,0,0,3,3h8a3,3,0,0,0,3-3V4a3,3,0,0,0-3-3H4M4,0h8a4,4,0,0,1,4,4v8a4,4,0,0,1-4,4H4a4,4,0,0,1-4-4V4A4,4,0,0,1,4,0Z" transform="translate(208.372 61.074) rotate(-45)" fill="#2b2b2b"/>
        <rect id="사각형_5829" data-name="사각형 5829" width="16" height="16" rx="4" transform="translate(197.059 72.388) rotate(-45)" fill="#fff"/>
        <path id="패스_6719" data-name="패스 6719" d="M4,1A3,3,0,0,0,1,4v8a3,3,0,0,0,3,3h8a3,3,0,0,0,3-3V4a3,3,0,0,0-3-3H4M4,0h8a4,4,0,0,1,4,4v8a4,4,0,0,1-4,4H4a4,4,0,0,1-4-4V4A4,4,0,0,1,4,0Z" transform="translate(197.059 72.388) rotate(-45)" fill="#2b2b2b"/>
        <rect id="사각형_5830" data-name="사각형 5830" width="16" height="16" rx="4" transform="translate(219.455 72.388) rotate(-45)" fill="#fff"/>
        <path id="패스_6720" data-name="패스 6720" d="M4,1A3,3,0,0,0,1,4v8a3,3,0,0,0,3,3h8a3,3,0,0,0,3-3V4a3,3,0,0,0-3-3H4M4,0h8a4,4,0,0,1,4,4v8a4,4,0,0,1-4,4H4a4,4,0,0,1-4-4V4A4,4,0,0,1,4,0Z" transform="translate(219.455 72.388) rotate(-45)" fill="#2b2b2b"/>
      </g>
      <circle id="타원_16" data-name="타원 16" cx="5" cy="5" r="5" transform="translate(5149.5 3565.291)" fill="#555cff"/>
      <circle id="타원_17" data-name="타원 17" cx="5" cy="5" r="5" transform="translate(5160.5 3553.978)" fill="#555cff"/>
      <circle id="타원_18" data-name="타원 18" cx="5" cy="5" r="5" transform="translate(5171.5 3565.291)" fill="#555cff"/>
    </g>
  </g>
</svg>
