<svg xmlns="http://www.w3.org/2000/svg" xmlns:xlink="http://www.w3.org/1999/xlink" width="80" height="80" viewBox="0 0 80 80"><defs><clipPath id="a"><rect width="80" height="80" fill="none"/></clipPath></defs><g clip-path="url(#a)"><path d="M37.892,7.973l0-.013v-3.5a4,4,0,1,0-8,0V7.969a31.1,31.1,0,0,0-16.127,7.08l-.033-.043-2.567-2.39a4,4,0,0,0-5.453,5.853l2.563,2.39c.033.027.073.037.1.063a31.236,31.236,0,1,0,29.51-12.95M33.875,64.3A25.367,25.367,0,1,1,59.242,38.936,25.4,25.4,0,0,1,33.875,64.3" transform="translate(6.125 1.064)"/><path d="M19.064,22.049V7.949a2.667,2.667,0,0,0-5.333,0v14.08a6.258,6.258,0,1,0,5.333.02" transform="translate(23.623 12.325)"/></g></svg>