<svg xmlns="http://www.w3.org/2000/svg" width="32" height="32" viewBox="0 0 32 32"><rect width="32" height="32" fill="none"/><path d="M14.671,2a6.8,6.8,0,1,1-6.8,6.8A6.808,6.808,0,0,1,14.671,2Zm0,11.2a4.4,4.4,0,1,0-4.4-4.4A4.4,4.4,0,0,0,14.671,13.2Zm0,3.884c9.038,0,12.379,4.5,12.379,7.612,0,1.913-.893,3-2.895,3.528-1.617.425-4.1.576-9.505.576s-7.889-.151-9.505-.576c-2-.527-2.895-1.615-2.895-3.528,0-1.845,1.11-3.37,2.923-4.832C8.024,17.567,11.912,17.084,14.671,17.084ZM14.65,26.4c4.2,0,7.327-.085,8.895-.5,1.105-.291,1.105-.559,1.105-1.207,0-.829-.5-1.77-1.981-2.962-1.275-1.026-3.7-2.249-8-2.249s-6.719,1.223-7.991,2.249C5.2,22.924,4.65,23.866,4.65,24.7c0,.648,0,.916,1.105,1.207C7.323,26.315,10.445,26.4,14.65,26.4Z" transform="translate(1.35 1.2)" fill="#ededed"/></svg>