<svg xmlns="http://www.w3.org/2000/svg" width="118" height="118.001"><defs><linearGradient id="a" x1=".5" x2=".5" y2="1" gradientUnits="objectBoundingBox"><stop offset="0" stop-color="#ffa53d"/><stop offset="1" stop-color="#ff6969"/></linearGradient><clipPath id="c"><circle cx="59" cy="59" r="59" transform="translate(-.201 -.2)" fill="#4d8191"/></clipPath><filter id="b"><feOffset dy="3"/><feGaussianBlur stdDeviation="3" result="c"/><feFlood flood-opacity=".059" result="d"/><feComposite operator="out" in="SourceGraphic" in2="c"/><feComposite operator="in" in="d"/><feComposite operator="in" in2="SourceGraphic"/></filter></defs><g data-type="innerShadowGroup"><circle cx="59" cy="59" r="59" fill="url(#a)"/><g filter="url(#b)"><circle cx="59" cy="59" r="59" fill="#fff"/></g></g><g transform="translate(.201 .201)" clip-path="url(#c)"><g opacity=".474"><path d="M132.446 32.174c0-2.194-1.7-3.982-4.821-3.982h-.013a3.8 3.8 0 00.742-2.246 4.132 4.132 0 00-4.239-3.989H95.133a4 4 0 100 7.977h8.585c.718-.08 1.5.432 1.472 1.647-.038 1.46-.754 2.182-1.417 2.043H90.536a3.729 3.729 0 100 7.387h33.646a4.007 4.007 0 004.239-3.694 3.237 3.237 0 00-.221-1.17c2.751-.209 4.245-1.919 4.245-3.974" fill="rgba(255,255,255,0.32)"/><path d="M124.182 41.511H90.536a4.225 4.225 0 110-8.387h13.289l.051.011a.291.291 0 00.06.006c.288 0 .727-.5.754-1.573a1.239 1.239 0 00-.282-.916.753.753 0 00-.545-.226.812.812 0 00-.09.005h-8.64a4.5 4.5 0 110-8.977h28.982a4.624 4.624 0 014.739 4.489 4.247 4.247 0 01-.394 1.789 5.419 5.419 0 013.077 1.251 4.322 4.322 0 01.171 6.223 5.166 5.166 0 01-2.861 1.366 3.692 3.692 0 01.076.743 4.5 4.5 0 01-4.741 4.196zm-33.646-7.387a3.233 3.233 0 100 6.387h33.646a3.5 3.5 0 003.739-3.194 2.739 2.739 0 00-.187-.99l-.242-.628.671-.051c2.3-.174 3.783-1.538 3.783-3.475 0-2.115-1.7-3.482-4.321-3.482h-1l.579-.795a3.3 3.3 0 00.646-1.951 3.625 3.625 0 00-3.739-3.489H95.133a3.5 3.5 0 100 6.977h8.564c.057-.005.114-.008.171-.008a1.745 1.745 0 011.261.528 2.173 2.173 0 01.565 1.64c-.045 1.75-.941 2.547-1.754 2.547a1.291 1.291 0 01-.209-.017z" fill="rgba(255,255,255,0.24)"/></g><path d="M-3.795 52.45c0-1.575 1.223-2.86 3.462-2.86h.009a2.728 2.728 0 01-.533-1.613 2.967 2.967 0 013.044-2.864H23a2.87 2.87 0 110 5.729h-6.165c-.516-.058-1.079.31-1.057 1.183.027 1.048.541 1.567 1.018 1.467h9.509a2.678 2.678 0 110 5.305H2.139A2.877 2.877 0 01-.905 56.15a2.325 2.325 0 01.158-.84c-1.975-.152-3.048-1.38-3.048-2.86" fill="rgba(255,255,255,0.32)"/><path d="M26.305 59.3H2.139a3.369 3.369 0 01-3.544-3.15 2.79 2.79 0 01.032-.419 3.8 3.8 0 01-1.99-1 3.177 3.177 0 01-.932-2.281 3.149 3.149 0 011.06-2.4 3.952 3.952 0 012.1-.91 3.186 3.186 0 01-.221-1.167 3.462 3.462 0 013.544-3.364H23a3.369 3.369 0 110 6.729h-6.272a.4.4 0 00-.29.12.757.757 0 00-.162.556c.018.707.29.992.4.992h.014l.051-.011h9.564a3.174 3.174 0 110 6.305zM-.333 50.094c-1.8 0-2.962.926-2.962 2.36 0 1.332.991 2.234 2.586 2.355l.671.051-.242.628a1.827 1.827 0 00-.125.66 2.376 2.376 0 002.544 2.153h24.166a2.183 2.183 0 100-4.305h-9.466a1.068 1.068 0 01-.161.012c-.65 0-1.366-.615-1.4-1.966a1.7 1.7 0 01.446-1.28 1.393 1.393 0 011.006-.422c.043 0 .086 0 .129.006h6.14a2.371 2.371 0 100-4.729H2.188a2.462 2.462 0 00-2.544 2.364 2.228 2.228 0 00.437 1.318l.579.795z" fill="rgba(255,255,255,0.24)"/><ellipse cx="77" cy="65" rx="77" ry="65" transform="translate(-18.201 81.025)" fill="#ffeb00" opacity=".44"/><path d="M69.447 62.728L58.799 52.082 48.154 62.728a4.931 4.931 0 01-6.971 0 4.934 4.934 0 010-6.964l10.648-10.646-10.648-10.647a4.923 4.923 0 010-6.964 4.924 4.924 0 016.965 0l10.648 10.647 10.65-10.647a4.924 4.924 0 016.965 0 4.923 4.923 0 010 6.964L65.763 45.119l10.648 10.646a4.923 4.923 0 010 6.964 4.916 4.916 0 01-3.484 1.443 4.9 4.9 0 01-3.48-1.444z" fill="rgba(255,255,255,0.78)"/><path d="M72.928 63.171a3.905 3.905 0 002.777-1.15 3.931 3.931 0 000-5.55L64.35 45.118l11.355-11.355a3.931 3.931 0 000-5.55 3.9 3.9 0 00-2.775-1.15 3.9 3.9 0 00-2.775 1.15L58.798 39.567 47.441 28.212a3.886 3.886 0 00-2.771-1.149 3.9 3.9 0 00-2.777 1.15 3.931 3.931 0 000 5.55l11.355 11.354L41.894 56.47a3.937 3.937 0 000 5.551 3.9 3.9 0 002.777 1.15 3.9 3.9 0 002.779-1.15l11.352-11.353.707.707 10.65 10.646a3.886 3.886 0 002.771 1.149m-28.26 1a4.916 4.916 0 01-3.484-1.443 4.934 4.934 0 010-6.964l10.648-10.646L41.186 34.47a4.923 4.923 0 010-6.964 4.924 4.924 0 016.965 0l10.648 10.647 10.65-10.647a4.924 4.924 0 016.965 0 4.923 4.923 0 010 6.964L65.766 45.118l10.648 10.646a4.923 4.923 0 010 6.964 4.924 4.924 0 01-6.965 0L58.801 52.082 48.156 62.728a4.918 4.918 0 01-3.488 1.443z" fill="rgba(255,248,194,0.53)"/><g opacity=".6"><path d="M100.744 75.203a1.638 1.638 0 01-1.639-1.64 1.639 1.639 0 011.639-1.645h9.895a2.865 2.865 0 01-.861-2.05 2.868 2.868 0 01.865-2.055H94.586a2.875 2.875 0 01-2.875-2.875 2.875 2.875 0 012.875-2.875h22.176a2.875 2.875 0 012.875 2.875 2.867 2.867 0 01-.865 2.055h5.379a2.875 2.875 0 012.875 2.875 2.875 2.875 0 01-2.875 2.875h-1.447a1.641 1.641 0 01.219.82 1.644 1.644 0 01-1.646 1.64z" fill="rgba(255,255,255,0.32)"/><path d="M121.275 75.703h-20.531a2.141 2.141 0 01-2.139-2.14 2.144 2.144 0 012.139-2.145h8.908a3.37 3.37 0 01-.375-1.55 3.364 3.364 0 01.377-1.555H94.586a3.378 3.378 0 01-3.375-3.375 3.378 3.378 0 013.375-3.375h22.176a3.378 3.378 0 013.375 3.375 3.364 3.364 0 01-.377 1.555h4.391a3.378 3.378 0 013.375 3.375 3.378 3.378 0 01-3.375 3.375h-.752a2.183 2.183 0 01.023.32 2.146 2.146 0 01-2.147 2.14zm-20.531-3.284a1.144 1.144 0 00-1.139 1.145 1.141 1.141 0 001.139 1.14h20.531a1.144 1.144 0 001.146-1.14 1.128 1.128 0 00-.152-.571l-.43-.749h2.311a2.377 2.377 0 002.375-2.375 2.377 2.377 0 00-2.375-2.375h-6.6l.875-.857a2.358 2.358 0 00.715-1.7 2.377 2.377 0 00-2.375-2.375H94.589a2.377 2.377 0 00-2.375 2.375 2.377 2.377 0 002.375 2.375h17.281l-.875.857a2.358 2.358 0 00-.715 1.7 2.357 2.357 0 00.711 1.693l.873.856z" fill="rgba(255,255,255,0.24)"/></g></g></svg>