<svg xmlns="http://www.w3.org/2000/svg" width="16" height="15" viewBox="0 0 16 15"><rect width="16" height="15" fill="none"/><path d="M-.606,2.306H.682a1.073,1.073,0,0,0,.682-.224,1.04,1.04,0,0,0,.375-.6L2,.356,2.165.3l.979.6a1,1,0,0,0,.692.161A1.089,1.089,0,0,0,4.478.73L5.37-.155A1.105,1.105,0,0,0,5.7-.8a1.01,1.01,0,0,0-.162-.69l-.61-.971.062-.157,1.119-.265a1.046,1.046,0,0,0,.6-.378,1.069,1.069,0,0,0,.226-.679V-5.194a1.07,1.07,0,0,0-.226-.678,1.046,1.046,0,0,0-.6-.379L5-6.521,4.93-6.688l.61-.971A1,1,0,0,0,5.7-8.346,1.13,1.13,0,0,0,5.375-9l-.892-.89a1.081,1.081,0,0,0-.637-.324,1.014,1.014,0,0,0-.692.157l-.979.6L2-9.522l-.258-1.122a1.05,1.05,0,0,0-.375-.6,1.065,1.065,0,0,0-.682-.227H-.606a1.063,1.063,0,0,0-.682.227,1.052,1.052,0,0,0-.375.6l-.263,1.122-.179.069-.974-.6a1.034,1.034,0,0,0-.695-.156,1.1,1.1,0,0,0-.639.323L-5.3-9a1.1,1.1,0,0,0-.33.649,1.01,1.01,0,0,0,.165.687l.605.971-.062.167-1.109.27a1.04,1.04,0,0,0-.6.379,1.077,1.077,0,0,0-.223.677v1.252a1.072,1.072,0,0,0,.226.679,1.04,1.04,0,0,0,.6.378l1.119.265.057.157-.605.971a1.015,1.015,0,0,0-.165.69,1.083,1.083,0,0,0,.33.647l.887.885a1.089,1.089,0,0,0,.642.329A1.023,1.023,0,0,0-3.067.9l.974-.6.168.058.263,1.122a1.04,1.04,0,0,0,.375.6A1.073,1.073,0,0,0-.606,2.306Zm.159-1.153a.161.161,0,0,1-.179-.144L-1-.554a3.36,3.36,0,0,1-.585-.185A3.406,3.406,0,0,1-2.1-1l-1.374.844A.164.164,0,0,1-3.7-.191l-.676-.675A.171.171,0,0,1-4.4-1.094l.847-1.364a5.417,5.417,0,0,1-.249-.508A3.535,3.535,0,0,1-4-3.546l-1.564-.37A.161.161,0,0,1-5.7-4.1v-.949a.165.165,0,0,1,.144-.179L-4-5.6a3.324,3.324,0,0,1,.2-.6q.126-.283.237-.491l-.842-1.364A.181.181,0,0,1-4.39-8.3l.682-.664a.184.184,0,0,1,.234-.029l1.363.828A3.856,3.856,0,0,1-1.6-8.414a4.322,4.322,0,0,1,.6-.2l.372-1.563a.161.161,0,0,1,.179-.144H.524a.155.155,0,0,1,.174.144L1.08-8.6a3.655,3.655,0,0,1,.587.194,4.885,4.885,0,0,1,.509.253l1.365-.831a.194.194,0,0,1,.241.029l.676.664a.174.174,0,0,1,.019.239l-.84,1.362q.114.208.238.491a3.477,3.477,0,0,1,.2.6l1.565.377a.165.165,0,0,1,.144.179V-4.1a.161.161,0,0,1-.144.179l-1.57.372a3.825,3.825,0,0,1-.19.579,4.178,4.178,0,0,1-.251.506L4.47-1.1a.164.164,0,0,1-.023.229l-.67.675a.171.171,0,0,1-.235.029L2.173-1a3.635,3.635,0,0,1-.507.264,3.35,3.35,0,0,1-.585.187L.7,1.009a.155.155,0,0,1-.174.144ZM.038-2.17A2.319,2.319,0,0,0,1.247-2.5a2.463,2.463,0,0,0,.872-.875,2.336,2.336,0,0,0,.325-1.212,2.31,2.31,0,0,0-.325-1.2,2.467,2.467,0,0,0-.872-.871,2.322,2.322,0,0,0-1.21-.325,2.322,2.322,0,0,0-1.21.325,2.493,2.493,0,0,0-.875.871,2.293,2.293,0,0,0-.328,1.2,2.307,2.307,0,0,0,.328,1.211,2.513,2.513,0,0,0,.875.874A2.308,2.308,0,0,0,.038-2.17Zm0-1.091a1.27,1.27,0,0,1-.661-.178A1.345,1.345,0,0,1-1.1-3.917a1.282,1.282,0,0,1-.178-.666A1.256,1.256,0,0,1-1.1-5.241a1.347,1.347,0,0,1,.478-.474,1.274,1.274,0,0,1,.66-.177,1.243,1.243,0,0,1,.652.178,1.357,1.357,0,0,1,.474.475,1.257,1.257,0,0,1,.177.657,1.276,1.276,0,0,1-.177.661,1.37,1.37,0,0,1-.474.481A1.23,1.23,0,0,1,.038-3.261Z" transform="translate(8 12)" fill="#fff"/></svg>