<svg xmlns="http://www.w3.org/2000/svg" width="24" height="24"><path fill="none" d="M0 0h24v24H0z"/><path d="M7.646 21.467H16.8a2.257 2.257 0 001.691-.579 2.527 2.527 0 00.566-1.817v-6.92a2.5 2.5 0 00-.563-1.8 2.257 2.257 0 00-1.694-.576H7.646a2.257 2.257 0 00-1.691.579 2.5 2.5 0 00-.563 1.8v6.917a2.527 2.527 0 00.563 1.816 2.257 2.257 0 001.691.58zm.29-1.746a.648.648 0 01-.486-.165.777.777 0 01-.159-.556v-6.771a.762.762 0 01.16-.549.66.66 0 01.485-.16h8.587a.64.64 0 01.477.16.781.781 0 01.154.549V19a.8.8 0 01-.154.556.628.628 0 01-.48.165zm-.775-9.1h1.857V7.337A3.942 3.942 0 019.455 5.4a2.979 2.979 0 011.168-1.2 3.247 3.247 0 011.6-.405 3.242 3.242 0 011.6.405 2.985 2.985 0 011.165 1.193 3.942 3.942 0 01.437 1.937v3.284h1.863v-3.1a6.411 6.411 0 00-.42-2.422 4.855 4.855 0 00-1.138-1.717 4.751 4.751 0 00-1.63-1.023 5.324 5.324 0 00-1.878-.34 5.3 5.3 0 00-1.876.34 4.759 4.759 0 00-1.623 1.024 4.89 4.89 0 00-1.141 1.718 6.369 6.369 0 00-.423 2.422z" fill="#2b2b2b"/></svg>