<svg xmlns="http://www.w3.org/2000/svg" width="16" height="16" viewBox="0 0 16 16"><g transform="translate(3886 14370)"><rect width="16" height="16" transform="translate(-3886 -14370)" fill="none"/><g transform="translate(-3885 -14369)"><path d="M13.193,19.435l-3.656,2.2a.559.559,0,0,1-.334.088.585.585,0,0,1-.314-.108.607.607,0,0,1-.206-.256.581.581,0,0,1-.029-.354l.963-4.167L6.392,14.03a.527.527,0,0,1-.187-.3.771.771,0,0,1,.01-.324.48.48,0,0,1,.177-.265.63.63,0,0,1,.334-.128l4.265-.373L12.643,8.7a.551.551,0,0,1,.236-.265.6.6,0,0,1,.629,0,.551.551,0,0,1,.236.265l1.651,3.931,4.265.373a.629.629,0,0,1,.334.128.48.48,0,0,1,.177.265.771.771,0,0,1,.01.324.527.527,0,0,1-.187.3L16.77,16.841l.963,4.167a.581.581,0,0,1-.029.354.607.607,0,0,1-.206.256.585.585,0,0,1-.314.108.559.559,0,0,1-.334-.088Z" transform="translate(-6.193 -8.35)" fill="#2d73f8"/></g></g></svg>