<svg xmlns="http://www.w3.org/2000/svg" width="16" height="16" viewBox="0 0 16 16"><g transform="translate(3891 14348)"><rect width="16" height="16" transform="translate(-3891 -14348)" fill="none"/><g transform="translate(-3890 -14347)"><path d="M12.693,18.644,9.3,20.688a.519.519,0,0,1-.31.082.544.544,0,0,1-.292-.1.564.564,0,0,1-.192-.237.539.539,0,0,1-.027-.329l.894-3.869-2.993-2.61a.49.49,0,0,1-.173-.283.716.716,0,0,1,.009-.3.446.446,0,0,1,.164-.246.585.585,0,0,1,.31-.119l3.96-.347,1.533-3.65a.511.511,0,0,1,.219-.246.56.56,0,0,1,.584,0,.511.511,0,0,1,.219.246l1.533,3.65,3.96.347a.585.585,0,0,1,.31.119.446.446,0,0,1,.164.246.716.716,0,0,1,.009.3.49.49,0,0,1-.173.283l-2.993,2.61.894,3.869a.539.539,0,0,1-.027.329.564.564,0,0,1-.192.237.544.544,0,0,1-.292.1.519.519,0,0,1-.31-.082Z" transform="translate(-5.693 -7.851)" fill="#fff"/><path d="M16.368,21.271a1.015,1.015,0,0,1-.542-.156l-3.134-1.887L9.559,21.114a1.012,1.012,0,0,1-.6.155,1.038,1.038,0,0,1-.555-.193,1.059,1.059,0,0,1-.359-.444,1.031,1.031,0,0,1-.06-.627l0-.015.827-3.577L6.049,14a.992.992,0,0,1-.337-.573,1.216,1.216,0,0,1,.016-.509.949.949,0,0,1,.34-.518,1.079,1.079,0,0,1,.569-.223h.006l3.66-.32,1.42-3.382A1.017,1.017,0,0,1,12.156,8,1.063,1.063,0,0,1,13.23,8a1.017,1.017,0,0,1,.431.479l0,.009,1.416,3.372,3.666.321a1.079,1.079,0,0,1,.569.223.949.949,0,0,1,.34.518,1.216,1.216,0,0,1,.016.509.991.991,0,0,1-.337.572l-2.768,2.413.83,3.592a1.031,1.031,0,0,1-.06.627,1.06,1.06,0,0,1-.359.444,1.038,1.038,0,0,1-.555.193ZM12.693,18.06l3.66,2.2c.011.007.014.007.016.007h0a.046.046,0,0,0,.029-.008.064.064,0,0,0,.024-.03s0-.008,0-.026l-.96-4.153,3.219-2.807.012-.012a.215.215,0,0,0,0-.053.139.139,0,0,0-.041-.01L14.393,12.8,12.746,8.879a.058.058,0,0,0-.007-.012.121.121,0,0,0-.046-.017.118.118,0,0,0-.047.018l-.006.011L10.993,12.8l-4.257.373a.149.149,0,0,0-.041.009.215.215,0,0,0,0,.053l.013.012,3.219,2.806-.96,4.152a.1.1,0,0,0,0,.029.064.064,0,0,0,.023.026.046.046,0,0,0,.029.008s.006,0,.018-.007l.007,0Z" transform="translate(-5.693 -7.851)" fill="#c9c9c9"/></g></g></svg>