<svg xmlns="http://www.w3.org/2000/svg" width="22" height="24" viewBox="0 0 22 24"><rect width="22" height="24" fill="none"/><path d="M-4.26,3.07H4.717a2.529,2.529,0,0,0,1.8-.642A2.474,2.474,0,0,0,7.255.656l.661-14.067H9a.824.824,0,0,0,.611-.251.842.842,0,0,0,.248-.615.817.817,0,0,0-.252-.608A.837.837,0,0,0,9-15.131H-8.538a.843.843,0,0,0-.611.25.814.814,0,0,0-.256.6.829.829,0,0,0,.256.615.841.841,0,0,0,.611.251h1.079L-6.8.664a2.467,2.467,0,0,0,.73,1.768A2.535,2.535,0,0,0-4.26,3.07Zm.194-1.732a.9.9,0,0,1-.671-.272,1.038,1.038,0,0,1-.283-.7l-.664-13.774H6.1L5.469.363a1.024,1.024,0,0,1-.282.707.914.914,0,0,1-.68.268ZM-2.651-.239a.664.664,0,0,0,.487-.18.619.619,0,0,0,.181-.466l-.3-10.234a.6.6,0,0,0-.191-.459.685.685,0,0,0-.485-.175.672.672,0,0,0-.487.179.588.588,0,0,0-.175.465L-3.329-.88a.642.642,0,0,0,.195.466A.676.676,0,0,0-2.651-.239Zm2.876,0a.7.7,0,0,0,.5-.177A.6.6,0,0,0,.916-.878V-11.113a.6.6,0,0,0-.191-.462.7.7,0,0,0-.5-.178.694.694,0,0,0-.493.178.6.6,0,0,0-.191.462V-.878a.6.6,0,0,0,.191.462A.7.7,0,0,0,.226-.239Zm2.882,0a.665.665,0,0,0,.475-.174A.642.642,0,0,0,3.778-.88l.291-10.23a.6.6,0,0,0-.171-.465.668.668,0,0,0-.491-.179.671.671,0,0,0-.481.175.645.645,0,0,0-.195.467L2.44-.885a.6.6,0,0,0,.173.466A.675.675,0,0,0,3.108-.239ZM-4.214-14.478h1.807v-2.027a.783.783,0,0,1,.244-.6.917.917,0,0,1,.652-.228H1.944a.917.917,0,0,1,.652.228.783.783,0,0,1,.244.6v2.027H4.647V-16.6a2.259,2.259,0,0,0-.682-1.746,2.682,2.682,0,0,0-1.892-.63H-1.64a2.682,2.682,0,0,0-1.892.63A2.259,2.259,0,0,0-4.214-16.6Z" transform="translate(11 19)" fill="#2b2b2b"/></svg>