<svg xmlns="http://www.w3.org/2000/svg" width="20" height="21" viewBox="0 0 20 21"><rect width="20" height="21" fill="none"/><path d="M.219,2.737a8.735,8.735,0,0,0,3.508-.711A9.253,9.253,0,0,0,6.624.06a9.284,9.284,0,0,0,1.966-2.9A8.722,8.722,0,0,0,9.3-6.344a8.671,8.671,0,0,0-.364-2.529,9.058,9.058,0,0,0-1-2.214,9.12,9.12,0,0,0-1.461-1.788.992.992,0,0,0-.561-.3.87.87,0,0,0-.533.089.915.915,0,0,0-.375.364.811.811,0,0,0-.094.526,1.034,1.034,0,0,0,.316.571,7.2,7.2,0,0,1,1.665,2.35,7.185,7.185,0,0,1,.615,2.931,7.161,7.161,0,0,1-.563,2.837A7.288,7.288,0,0,1,5.383-1.187,7.317,7.317,0,0,1,3.06.377,7.156,7.156,0,0,1,.219.943,7.126,7.126,0,0,1-2.617.377a7.337,7.337,0,0,1-2.32-1.565A7.271,7.271,0,0,1-6.5-3.507a7.17,7.17,0,0,1-.562-2.837,7.211,7.211,0,0,1,.614-2.938,7.232,7.232,0,0,1,1.659-2.35,1.034,1.034,0,0,0,.316-.571.824.824,0,0,0-.091-.526.886.886,0,0,0-.375-.364.886.886,0,0,0-.536-.089,1,1,0,0,0-.562.3A9.078,9.078,0,0,0-7.5-11.091a9.1,9.1,0,0,0-1,2.218,8.687,8.687,0,0,0-.363,2.529,8.73,8.73,0,0,0,.711,3.507A9.265,9.265,0,0,0-6.185.06a9.263,9.263,0,0,0,2.9,1.966A8.732,8.732,0,0,0,.219,2.737Zm0-9.056a.861.861,0,0,0,.654-.262.959.959,0,0,0,.249-.69V-15a.957.957,0,0,0-.249-.688.861.861,0,0,0-.654-.262.848.848,0,0,0-.649.262A.965.965,0,0,0-.676-15v7.733a.967.967,0,0,0,.246.69A.848.848,0,0,0,.219-6.319Z" transform="translate(10 17)" fill="#2b2b2b"/></svg>