<svg xmlns="http://www.w3.org/2000/svg" width="11.742" height="11.735"><path d="M.236 11.5a.818.818 0 00.374.209.849.849 0 00.421 0 .769.769 0 00.362-.2L5.872 7.03l4.476 4.472a.771.771 0 00.364.207.872.872 0 00.422 0 .751.751 0 00.369-.212.767.767 0 00.207-.366.881.881 0 000-.42.759.759 0 00-.2-.364L7.033 5.864l4.476-4.472a.781.781 0 00.206-.364.831.831 0 000-.419.789.789 0 00-.21-.366.783.783 0 00-.372-.213.879.879 0 00-.419 0 .738.738 0 00-.364.209L5.873 4.715 1.394.238a.732.732 0 00-.365-.207.911.911 0 00-.424 0 .738.738 0 00-.368.212.762.762 0 00-.2.367.9.9 0 000 .421.744.744 0 00.2.361l4.479 4.477-4.484 4.482a.77.77 0 00-.2.36.862.862 0 000 .421.747.747 0 00.204.368z" fill="#ff8181"/></svg>