<svg xmlns="http://www.w3.org/2000/svg" width="30" height="30" viewBox="0 0 30 30"><rect width="30" height="30" fill="none"/><path d="M.129,3.2a10.51,10.51,0,0,0,4.227-.859,11.2,11.2,0,0,0,3.5-2.374,11.2,11.2,0,0,0,2.374-3.5,10.51,10.51,0,0,0,.859-4.227,10.51,10.51,0,0,0-.859-4.227,11.2,11.2,0,0,0-2.374-3.5,11.183,11.183,0,0,0-3.5-2.374,10.548,10.548,0,0,0-4.232-.859,10.51,10.51,0,0,0-4.227.859A11.136,11.136,0,0,0-7.6-15.479a11.246,11.246,0,0,0-2.369,3.5,10.51,10.51,0,0,0-.859,4.227,10.51,10.51,0,0,0,.859,4.227,11.2,11.2,0,0,0,2.374,3.5A11.2,11.2,0,0,0-4.1,2.342,10.51,10.51,0,0,0,.129,3.2Zm0-1.826A8.93,8.93,0,0,1-3.427.666a9.186,9.186,0,0,1-2.906-1.96A9.111,9.111,0,0,1-8.288-4.2a8.989,8.989,0,0,1-.7-3.556,8.989,8.989,0,0,1,.7-3.556,9.219,9.219,0,0,1,1.95-2.911,9.006,9.006,0,0,1,2.9-1.96,8.989,8.989,0,0,1,3.556-.7,8.989,8.989,0,0,1,3.556.7,9.131,9.131,0,0,1,2.911,1.96,9.2,9.2,0,0,1,1.966,2.911A8.93,8.93,0,0,1,9.26-7.756a8.989,8.989,0,0,1-.7,3.556A9.111,9.111,0,0,1,6.6-1.294,9.169,9.169,0,0,1,3.69.666,8.969,8.969,0,0,1,.129,1.375ZM-4.855-7.756a.839.839,0,0,0,.258.634.923.923,0,0,0,.666.247H-.773v3.169a.9.9,0,0,0,.247.661.848.848,0,0,0,.634.252.893.893,0,0,0,.661-.252.893.893,0,0,0,.252-.661V-6.875H4.189a.9.9,0,0,0,.661-.247A.848.848,0,0,0,5.1-7.756a.893.893,0,0,0-.252-.661.893.893,0,0,0-.661-.252H1.021v-3.158A.907.907,0,0,0,.768-12.5a.893.893,0,0,0-.661-.252.839.839,0,0,0-.634.258.923.923,0,0,0-.247.666v3.158H-3.932a.907.907,0,0,0-.671.252A.893.893,0,0,0-4.855-7.756Z" transform="translate(15 23)" fill="#9d9d9d"/></svg>