<svg xmlns="http://www.w3.org/2000/svg" width="32" height="32" viewBox="0 0 32 32"><rect width="32" height="32" fill="none"/><path d="M-6.281,2.681H6.548a4.983,4.983,0,0,0,2.4-.578A4.453,4.453,0,0,0,10.656.5a4.448,4.448,0,0,0,.636-2.387,4.448,4.448,0,0,0-.636-2.387A4.445,4.445,0,0,0,8.943-5.885a4.99,4.99,0,0,0-2.4-.577H-6.281a5.008,5.008,0,0,0-2.4.577A4.445,4.445,0,0,0-10.4-4.278a4.448,4.448,0,0,0-.636,2.387A4.448,4.448,0,0,0-10.4.5,4.453,4.453,0,0,0-8.685,2.1,5,5,0,0,0-6.281,2.681ZM6.82.768A2.634,2.634,0,0,1,5.481.4a2.718,2.718,0,0,1-.956-.961A2.577,2.577,0,0,1,4.168-1.9a2.566,2.566,0,0,1,.357-1.333A2.707,2.707,0,0,1,5.481-4.2a2.556,2.556,0,0,1,1.335-.357A2.615,2.615,0,0,1,8.165-4.2a2.7,2.7,0,0,1,.966.955,2.457,2.457,0,0,1,.347,1.323A2.638,2.638,0,0,1,9.119-.563a2.685,2.685,0,0,1-.962.972A2.57,2.57,0,0,1,6.82.768ZM-5.841-8.112H6.107a5.479,5.479,0,0,0,2.63-.631,4.78,4.78,0,0,0,1.866-1.77,5.016,5.016,0,0,0,.689-2.647,5.021,5.021,0,0,0-.689-2.648A4.778,4.778,0,0,0,8.737-17.58a5.479,5.479,0,0,0-2.63-.631H-5.841a5.479,5.479,0,0,0-2.63.631,4.809,4.809,0,0,0-1.87,1.771,5,5,0,0,0-.693,2.648,4.991,4.991,0,0,0,.693,2.647,4.811,4.811,0,0,0,1.87,1.77A5.479,5.479,0,0,0-5.841-8.112Zm0-1.933a3.39,3.39,0,0,1-1.617-.395,3.148,3.148,0,0,1-1.192-1.1A2.942,2.942,0,0,1-9.1-13.161a2.942,2.942,0,0,1,.449-1.625,3.148,3.148,0,0,1,1.192-1.1,3.39,3.39,0,0,1,1.617-.395H6.107a3.372,3.372,0,0,1,1.608.395,3.149,3.149,0,0,1,1.192,1.1,2.942,2.942,0,0,1,.449,1.625,2.942,2.942,0,0,1-.449,1.625,3.149,3.149,0,0,1-1.192,1.1,3.372,3.372,0,0,1-1.608.395Zm0-.713a2.222,2.222,0,0,0,1.213-.319,2.531,2.531,0,0,0,.873-.881,2.343,2.343,0,0,0,.329-1.224,2.258,2.258,0,0,0-.315-1.212,2.411,2.411,0,0,0-.876-.862,2.4,2.4,0,0,0-1.224-.32,2.345,2.345,0,0,0-1.217.324,2.408,2.408,0,0,0-.867.872,2.353,2.353,0,0,0-.32,1.208,2.37,2.37,0,0,0,.32,1.217,2.408,2.408,0,0,0,.867.872A2.345,2.345,0,0,0-5.841-10.758Z" transform="translate(16 24)" fill="#2b2b2b"/></svg>