<svg xmlns="http://www.w3.org/2000/svg" width="132.861" height="12.24"><g fill="#2b2b2b"><path d="M10.166 12.07L7.429 8.16a3.8 3.8 0 002.533-3.757C9.962 1.768 8.024.17 4.896.17h-4.9v11.9h2.21V8.602h2.686a4.143 4.143 0 00.459-.017l2.435 3.485zM7.735 4.403c0 1.5-1 2.38-2.941 2.38H2.21V2.04h2.584c1.938 0 2.941.867 2.941 2.363zm9.027-4.4c-3.162 0-5.287 1.9-5.287 5.474v6.593h2.176V9.01h6.188v3.06h2.21v-6.6c0-3.566-2.125-5.47-5.287-5.47zM13.651 7.16V5.27c0-2.261 1.207-3.332 3.094-3.332s3.094 1.071 3.094 3.332v1.887zM29.189.17h-4.9v11.9h2.21V8.636h2.686c3.128 0 5.066-1.615 5.066-4.233C34.255 1.77 32.317.17 29.189.17zm-.1 6.6h-2.584V2.04h2.584c1.938 0 2.941.867 2.941 2.363S31.025 6.77 29.087 6.77zm12.255 5.47a6.084 6.084 0 006.409-6.12A6.084 6.084 0 0041.344 0a6.093 6.093 0 00-6.409 6.12 6.093 6.093 0 006.409 6.12zm0-1.938a4.055 4.055 0 01-4.182-4.182 4.055 4.055 0 014.182-4.182 4.055 4.055 0 014.182 4.182 4.055 4.055 0 01-4.182 4.182zm18.071 1.768l-2.739-3.91a3.8 3.8 0 002.533-3.757C59.211 1.77 57.276.17 54.145.17h-4.9v11.9h2.21V8.602h2.69a4.143 4.143 0 00.459-.017l2.431 3.485zm-2.431-7.667c0 1.5-1 2.38-2.941 2.38h-2.584V2.04h2.584c1.933 0 2.941.867 2.941 2.363zm9.027-4.4c-3.162 0-5.287 1.9-5.287 5.474v6.593H62.9V9.01h6.188v3.06h2.21v-6.6c0-3.566-2.122-5.47-5.287-5.47zM62.9 7.157V5.27c0-2.261 1.207-3.332 3.094-3.332s3.094 1.071 3.094 3.332v1.887zM78.438.17h-4.9v11.9h2.21V8.636h2.686c3.128 0 5.066-1.615 5.066-4.233C83.504 1.77 81.566.17 78.438.17zm-.1 6.6h-2.586V2.04h2.584c1.938 0 2.941.867 2.941 2.363S80.276 6.77 78.336 6.77zm12.255 5.47a6.084 6.084 0 006.409-6.12A6.084 6.084 0 0090.593 0a6.093 6.093 0 00-6.409 6.12 6.093 6.093 0 006.409 6.12zm0-1.938a4.055 4.055 0 01-4.182-4.182 4.055 4.055 0 014.182-4.182 4.055 4.055 0 014.183 4.182 4.055 4.055 0 01-4.183 4.182zM107.165.264v.639A2.081 2.081 0 00105.5.21a2.282 2.282 0 00-2.43 2.313 2.3 2.3 0 002.43 2.331 2.116 2.116 0 001.611-.639v.255c0 .972-.468 1.458-1.53 1.458a2.9 2.9 0 01-1.773-.579l-.5.846a3.82 3.82 0 002.34.684 2.264 2.264 0 002.588-2.538V.264zM105.671 3.9a1.363 1.363 0 01-1.467-1.377 1.354 1.354 0 011.467-1.359 1.351 1.351 0 011.457 1.359 1.36 1.36 0 01-1.457 1.377zm7.164-3.636v.585a2 2 0 00-1.539-.639 2.327 2.327 0 00-2.43 2.46 2.334 2.334 0 002.43 2.463 1.982 1.982 0 001.593-.684v.621h1.071V.264zm-1.413 3.906A1.4 1.4 0 01110 2.67a1.4 1.4 0 011.422-1.5 1.4 1.4 0 011.431 1.5 1.4 1.4 0 01-1.431 1.5zm9.63-3.96a2.243 2.243 0 00-1.8.8 1.8 1.8 0 00-1.62-.8 1.991 1.991 0 00-1.575.666V.264h-1.071V5.07h1.125V2.631c0-.954.5-1.44 1.251-1.44.684 0 1.08.414 1.08 1.269v2.61h1.125V2.631c0-.954.513-1.44 1.251-1.44.684 0 1.08.414 1.08 1.269v2.61h1.13V2.316A1.849 1.849 0 00121.052.21zm5.292 3.969a1.464 1.464 0 01-1.458-.846l3.681-.72a2.317 2.317 0 00-2.43-2.4 2.383 2.383 0 00-2.475 2.457 2.44 2.44 0 002.655 2.463 2.4 2.4 0 001.926-.783l-.594-.693a1.736 1.736 0 01-1.305.522zm-.207-3.069a1.314 1.314 0 011.332.981l-2.718.522v-.009a1.359 1.359 0 011.386-1.494zm4.545 4.023c1.35 0 2.178-.585 2.178-1.485 0-1.881-2.97-1.017-2.97-1.989 0-.315.324-.54 1.008-.54a2.631 2.631 0 011.377.36l.432-.855a3.825 3.825 0 00-1.8-.414c-1.3 0-2.115.594-2.115 1.5 0 1.917 2.97 1.053 2.97 1.971 0 .333-.3.531-1.008.531a3.234 3.234 0 01-1.674-.477l-.432.855a3.818 3.818 0 002.034.543z"/></g></svg>