<svg xmlns="http://www.w3.org/2000/svg" width="132.86" height="12.24" viewBox="0 0 132.86 12.24"><g transform="translate(-129.925 -26.93)"><g transform="translate(128.001 23)"><path d="M11.764,0,9.027-3.91A3.8,3.8,0,0,0,11.56-7.667c0-2.635-1.938-4.233-5.066-4.233H1.6V0h2.21V-3.468H6.494a4.143,4.143,0,0,0,.459-.017L9.384,0ZM9.333-7.667c0,1.5-1,2.38-2.941,2.38H3.808V-10.03H6.392C8.33-10.03,9.333-9.163,9.333-7.667Zm9.027-4.4c-3.162,0-5.287,1.9-5.287,5.474V0h2.176V-3.06h6.188V0h2.21V-6.6C23.647-10.166,21.522-12.07,18.36-12.07ZM15.249-4.913V-6.8c0-2.261,1.207-3.332,3.094-3.332S21.437-9.061,21.437-6.8v1.887ZM30.787-11.9h-4.9V0H28.1V-3.434h2.686c3.128,0,5.066-1.615,5.066-4.233C35.853-10.3,33.915-11.9,30.787-11.9Zm-.1,6.6H28.1V-10.03h2.584c1.938,0,2.941.867,2.941,2.363S32.623-5.3,30.685-5.3ZM42.942.17a6.084,6.084,0,0,0,6.409-6.12,6.084,6.084,0,0,0-6.409-6.12,6.093,6.093,0,0,0-6.409,6.12A6.093,6.093,0,0,0,42.942.17Zm0-1.938A4.055,4.055,0,0,1,38.76-5.95a4.055,4.055,0,0,1,4.182-4.182A4.055,4.055,0,0,1,47.124-5.95,4.055,4.055,0,0,1,42.942-1.768ZM61.013,0,58.276-3.91a3.8,3.8,0,0,0,2.533-3.757c0-2.635-1.938-4.233-5.066-4.233h-4.9V0h2.21V-3.468h2.686a4.143,4.143,0,0,0,.459-.017L58.633,0ZM58.582-7.667c0,1.5-1,2.38-2.941,2.38H53.057V-10.03h2.584C57.579-10.03,58.582-9.163,58.582-7.667Zm9.027-4.4c-3.162,0-5.287,1.9-5.287,5.474V0H64.5V-3.06h6.188V0H72.9V-6.6C72.9-10.166,70.771-12.07,67.609-12.07ZM64.5-4.913V-6.8c0-2.261,1.207-3.332,3.094-3.332S70.686-9.061,70.686-6.8v1.887ZM80.036-11.9h-4.9V0h2.21V-3.434h2.686c3.128,0,5.066-1.615,5.066-4.233C85.1-10.3,83.164-11.9,80.036-11.9Zm-.1,6.6H77.35V-10.03h2.584c1.938,0,2.941.867,2.941,2.363S81.872-5.3,79.934-5.3ZM92.191.17A6.084,6.084,0,0,0,98.6-5.95a6.084,6.084,0,0,0-6.409-6.12,6.093,6.093,0,0,0-6.409,6.12A6.093,6.093,0,0,0,92.191.17Zm0-1.938A4.055,4.055,0,0,1,88.009-5.95a4.055,4.055,0,0,1,4.182-4.182A4.055,4.055,0,0,1,96.373-5.95,4.055,4.055,0,0,1,92.191-1.768Z" transform="translate(0.326 16)" fill="#2b2b2b"/><path d="M4.437-4.806v.639A2.081,2.081,0,0,0,2.772-4.86,2.282,2.282,0,0,0,.342-2.547,2.3,2.3,0,0,0,2.772-.216,2.116,2.116,0,0,0,4.383-.855V-.6c0,.972-.468,1.458-1.53,1.458A2.9,2.9,0,0,1,1.08.279l-.5.846a3.82,3.82,0,0,0,2.34.684A2.264,2.264,0,0,0,5.508-.729V-4.806ZM2.943-1.17A1.363,1.363,0,0,1,1.476-2.547,1.354,1.354,0,0,1,2.943-3.906,1.351,1.351,0,0,1,4.4-2.547,1.36,1.36,0,0,1,2.943-1.17Zm7.164-3.636v.585A2,2,0,0,0,8.568-4.86,2.327,2.327,0,0,0,6.138-2.4,2.334,2.334,0,0,0,8.568.063a1.982,1.982,0,0,0,1.593-.684V0h1.071V-4.806ZM8.694-.9A1.4,1.4,0,0,1,7.272-2.4a1.4,1.4,0,0,1,1.422-1.5,1.4,1.4,0,0,1,1.431,1.5A1.4,1.4,0,0,1,8.694-.9Zm9.63-3.96a2.243,2.243,0,0,0-1.8.8,1.8,1.8,0,0,0-1.62-.8,1.991,1.991,0,0,0-1.575.666v-.612H12.258V0h1.125V-2.439c0-.954.5-1.44,1.251-1.44.684,0,1.08.414,1.08,1.269V0h1.125V-2.439c0-.954.513-1.44,1.251-1.44.684,0,1.08.414,1.08,1.269V0H20.3V-2.754A1.849,1.849,0,0,0,18.324-4.86ZM23.616-.891a1.464,1.464,0,0,1-1.458-.846l3.681-.72a2.317,2.317,0,0,0-2.43-2.4A2.383,2.383,0,0,0,20.934-2.4,2.44,2.44,0,0,0,23.589.063,2.4,2.4,0,0,0,25.515-.72l-.594-.693A1.736,1.736,0,0,1,23.616-.891ZM23.409-3.96a1.314,1.314,0,0,1,1.332.981l-2.718.522v-.009A1.359,1.359,0,0,1,23.409-3.96ZM27.954.063c1.35,0,2.178-.585,2.178-1.485,0-1.881-2.97-1.017-2.97-1.989,0-.315.324-.54,1.008-.54a2.631,2.631,0,0,1,1.377.36l.432-.855a3.825,3.825,0,0,0-1.8-.414c-1.3,0-2.115.594-2.115,1.5,0,1.917,2.97,1.053,2.97,1.971,0,.333-.3.531-1.008.531a3.234,3.234,0,0,1-1.674-.477l-.432.855A3.818,3.818,0,0,0,27.954.063Z" transform="translate(104.652 9)" fill="#2b2b2b"/></g></g></svg>