<svg xmlns="http://www.w3.org/2000/svg" width="21" height="16" viewBox="0 0 21 16"><rect width="21" height="16" fill="none"/><path d="M-17.631-5.644A1.809,1.809,0,0,0-16.69-5.9a1.9,1.9,0,0,0,.678-.681,1.841,1.841,0,0,0,.251-.949,1.8,1.8,0,0,0-.251-.933,1.927,1.927,0,0,0-.678-.681,1.794,1.794,0,0,0-.941-.256,1.814,1.814,0,0,0-.944.254,1.928,1.928,0,0,0-.681.678,1.794,1.794,0,0,0-.254.938,1.825,1.825,0,0,0,.254.949,1.918,1.918,0,0,0,.681.681A1.814,1.814,0,0,0-17.631-5.644Zm0-1.194a.658.658,0,0,1-.482-.2.665.665,0,0,1-.2-.488.646.646,0,0,1,.2-.477.663.663,0,0,1,.482-.2.646.646,0,0,1,.477.2.653.653,0,0,1,.2.474.674.674,0,0,1-.2.488A.644.644,0,0,1-17.631-6.838Zm7.083-1.683a1.8,1.8,0,0,0,.94-.254,1.935,1.935,0,0,0,.678-.678,1.809,1.809,0,0,0,.254-.947,1.8,1.8,0,0,0-.254-.939,1.935,1.935,0,0,0-.678-.678,1.8,1.8,0,0,0-.94-.254,1.822,1.822,0,0,0-.948.254,1.9,1.9,0,0,0-.678.678,1.81,1.81,0,0,0-.251.939,1.809,1.809,0,0,0,.254.947,1.927,1.927,0,0,0,.681.678A1.812,1.812,0,0,0-10.548-8.521Zm0-1.194a.659.659,0,0,1-.482-.2.657.657,0,0,1-.2-.482.643.643,0,0,1,.2-.48.668.668,0,0,1,.482-.2.65.65,0,0,1,.476.2.649.649,0,0,1,.2.474.668.668,0,0,1-.2.482A.645.645,0,0,1-10.548-9.716ZM-3.47-5.644A1.811,1.811,0,0,0-2.527-5.9a1.918,1.918,0,0,0,.681-.681,1.825,1.825,0,0,0,.254-.949,1.794,1.794,0,0,0-.254-.938,1.928,1.928,0,0,0-.681-.678A1.811,1.811,0,0,0-3.47-9.4a1.8,1.8,0,0,0-.943.256,1.927,1.927,0,0,0-.678.681,1.8,1.8,0,0,0-.251.933,1.841,1.841,0,0,0,.251.949,1.9,1.9,0,0,0,.678.681A1.812,1.812,0,0,0-3.47-5.644Zm0-1.194a.647.647,0,0,1-.482-.2.673.673,0,0,1-.2-.488A.653.653,0,0,1-3.949-8a.65.65,0,0,1,.479-.2.661.661,0,0,1,.481.2.646.646,0,0,1,.2.477.665.665,0,0,1-.2.488A.657.657,0,0,1-3.47-6.838Zm-13.4.727,2.221,1.347a1.408,1.408,0,0,0,.91.186,1.242,1.242,0,0,0,.869-.534l2.643-3.552-1.174-.5-2.366,3.183a.32.32,0,0,1-.185.137.354.354,0,0,1-.25-.076l-2.007-1.241Zm12.643.01-.658-1.054-2,1.228a.372.372,0,0,1-.267.08.349.349,0,0,1-.2-.147l-2.349-3.17-1.169.509,2.648,3.562a1.207,1.207,0,0,0,.852.53,1.354,1.354,0,0,0,.877-.169ZM-15.982-1.053h10.87V-2.3h-10.87Zm-1.742-4.887,1.411,5.747a2.385,2.385,0,0,0,.694,1.271,2.011,2.011,0,0,0,1.364.423h7.41a2.022,2.022,0,0,0,1.367-.423,2.375,2.375,0,0,0,.7-1.271l1.411-5.747-1.158-.527L-6.012-.371a.764.764,0,0,1-.821.629h-7.43a.759.759,0,0,1-.82-.629l-1.488-6.095Z" transform="translate(21 13)" fill="#2b2b2b"/></svg>