<svg xmlns="http://www.w3.org/2000/svg" width="46" height="46"><path fill="none" d="M0 0h46v46H0z"/><path d="M29.215 33.059l-11.93-20.633a2.013 2.013 0 00-.914-.9 2.359 2.359 0 00-1.165-.174 4.626 4.626 0 00-1.173.31 9.691 9.691 0 00-1.3.625 10 10 0 00-1.815 1.339q-.78.734-1.476 1.5t-1.455 1.491a8.957 8.957 0 01-1.738 1.293 9.253 9.253 0 01-1.574.749 7.494 7.494 0 00-1.1.461 1.527 1.527 0 00-.691.778 1.147 1.147 0 00.121 1.008l4.5 7.813a1.981 1.981 0 00.918.889 2.38 2.38 0 001.163.168 4.515 4.515 0 001.181-.309 8.769 8.769 0 001.285-.635 9.827 9.827 0 001.82-1.33q.787-.735 1.477-1.507t1.452-1.491a9.418 9.418 0 011.748-1.291 8.643 8.643 0 011.133-.561q.53-.209.893-.348l6.813 11.81a1.06 1.06 0 00.639.5.989.989 0 00.8-.1 1.021 1.021 0 00.482-.643 1.032 1.032 0 00-.094-.812zM19.483 20.43a5.92 5.92 0 00-1.023.431q-.535.282-.971.526a10.272 10.272 0 00-1.9 1.378q-.8.747-1.485 1.516t-1.416 1.475a8.45 8.45 0 01-1.7 1.256q-.134.082-.4.215a5.281 5.281 0 01-.6.252 2.58 2.58 0 01-.685.144l-4-6.918a5.975 5.975 0 001.025-.432q.534-.282.96-.526a10.482 10.482 0 001.906-1.387q.8-.747 1.48-1.512t1.415-1.47a8.624 8.624 0 011.691-1.254q.136-.075.406-.213a4.983 4.983 0 01.6-.258 2.565 2.565 0 01.684-.144zm4.334.462l1.216 2.1.391-.685.893.348a8.643 8.643 0 011.132.558 9.253 9.253 0 011.74 1.291q.76.718 1.455 1.491t1.476 1.506a9.713 9.713 0 001.813 1.33 9.269 9.269 0 001.3.635 4.52 4.52 0 001.172.309 2.406 2.406 0 001.172-.168 1.938 1.938 0 00.909-.889L43 20.905a1.147 1.147 0 00.121-1.008 1.527 1.527 0 00-.691-.778 7.5 7.5 0 00-1.1-.461 9.541 9.541 0 01-1.583-.749 8.832 8.832 0 01-1.742-1.287q-.755-.723-1.451-1.491t-1.476-1.5a10 10 0 00-1.815-1.339 9.691 9.691 0 00-1.3-.625 4.626 4.626 0 00-1.173-.31 2.359 2.359 0 00-1.165.175 2.013 2.013 0 00-.914.9zm2.7-.462l4-6.922a2.565 2.565 0 01.684.144 4.708 4.708 0 01.6.258q.265.139.4.213a8.393 8.393 0 011.7 1.254q.731.706 1.415 1.47t1.485 1.512a10.482 10.482 0 001.906 1.387q.426.245.96.526a5.975 5.975 0 001.025.432l-4 6.918a2.572 2.572 0 01-.686-.144 5.312 5.312 0 01-.6-.252q-.265-.133-.4-.215a8.45 8.45 0 01-1.7-1.256q-.731-.703-1.416-1.473t-1.485-1.516a10.146 10.146 0 00-1.9-1.378q-.426-.245-.966-.526a6.2 6.2 0 00-1.023-.432zm-4.338 7.505l-1.223-2.11-4.172 7.234a1.046 1.046 0 00-.1.8 1 1 0 00.487.643.989.989 0 00.8.1 1.025 1.025 0 00.629-.5z" fill="#fff"/></svg>