<svg xmlns="http://www.w3.org/2000/svg" width="15.96" height="13.277"><path d="M.143 6.651a.52.52 0 00-.116.5q.089.221.452.221h.9a6.367 6.367 0 00.7 2.3 6.815 6.815 0 001.466 1.886 6.748 6.748 0 002.029 1.264 6.4 6.4 0 002.407.456 6.309 6.309 0 002.728-.6 6.706 6.706 0 002.171-1.614.643.643 0 00.194-.472.531.531 0 00-.2-.411.576.576 0 00-.433-.138.688.688 0 00-.435.229 5.4 5.4 0 01-1.778 1.31 5.266 5.266 0 01-2.248.485 5.327 5.327 0 01-1.954-.363 5.384 5.384 0 01-1.638-1 5.511 5.511 0 01-1.183-1.485 5.215 5.215 0 01-.592-1.842h.961q.362 0 .452-.221a.51.51 0 00-.109-.5l-1.5-2.123a.471.471 0 00-.388-.237.491.491 0 00-.394.237zm2.948-4.447a.632.632 0 00-.2.469.528.528 0 00.2.408.587.587 0 00.433.141.674.674 0 00.436-.218 5.524 5.524 0 011.781-1.3 5.229 5.229 0 012.239-.485 5.32 5.32 0 011.957.358 5.467 5.467 0 011.638 1 5.372 5.372 0 011.182 1.479 5.282 5.282 0 01.589 1.848h-.966q-.355 0-.448.221a.5.5 0 00.112.5l1.493 2.118a.486.486 0 00.391.234.469.469 0 00.391-.234l1.5-2.116a.512.512 0 00.112-.5q-.091-.223-.457-.223h-.9a6.407 6.407 0 00-.7-2.3 6.732 6.732 0 00-1.456-1.885 6.789 6.789 0 00-2.03-1.263A6.4 6.4 0 007.98.004a6.3 6.3 0 00-2.718.6 6.676 6.676 0 00-2.171 1.6z" fill="#fff"/></svg>