<svg xmlns="http://www.w3.org/2000/svg" width="22" height="20" viewBox="0 0 22 20"><rect width="22" height="20" fill="none"/><path d="M10.061,2.582a8.263,8.263,0,0,0,3.32-.672A8.75,8.75,0,0,0,16.116.054a8.691,8.691,0,0,0,1.851-2.735,8.287,8.287,0,0,0,.668-3.312,8.242,8.242,0,0,0-.672-3.312A8.715,8.715,0,0,0,16.1-12.04,8.8,8.8,0,0,0,13.364-13.9a8.242,8.242,0,0,0-3.312-.672,8.217,8.217,0,0,0-3.092.585A8.794,8.794,0,0,0,4.35-12.364,8.649,8.649,0,0,0,2.465-9.953a8.3,8.3,0,0,0-.913,2.972,4.376,4.376,0,0,1,.843-.112,4.37,4.37,0,0,1,.884.046,6.766,6.766,0,0,1,.772-2.3,6.769,6.769,0,0,1,1.5-1.855,6.85,6.85,0,0,1,2.059-1.229,6.781,6.781,0,0,1,2.445-.44,6.76,6.76,0,0,1,2.681.531,6.945,6.945,0,0,1,2.2,1.478,6.85,6.85,0,0,1,1.482,2.2,6.769,6.769,0,0,1,.531,2.677,6.74,6.74,0,0,1-.49,2.565A6.755,6.755,0,0,1,15.1-1.312,4.527,4.527,0,0,0,13.941-2.2a7.178,7.178,0,0,0-1.718-.672,8.57,8.57,0,0,0-2.171-.257,8.463,8.463,0,0,0-1.075.066,9.924,9.924,0,0,0-.984.174,5.365,5.365,0,0,1,.141,1.237A5.189,5.189,0,0,1,7.774.274a5.7,5.7,0,0,1-.992,1.644,8.8,8.8,0,0,0,1.585.49A8.217,8.217,0,0,0,10.061,2.582ZM10.052-4.5A2.6,2.6,0,0,0,11.5-4.9a2.952,2.952,0,0,0,1.029-1.125,3.342,3.342,0,0,0,.382-1.6,3.141,3.141,0,0,0-.386-1.54A3.09,3.09,0,0,0,11.5-10.289a2.6,2.6,0,0,0-1.448-.419,2.621,2.621,0,0,0-1.448.419A3.03,3.03,0,0,0,7.57-9.168,3.1,3.1,0,0,0,7.2-7.628a3.3,3.3,0,0,0,.382,1.59A2.992,2.992,0,0,0,8.608-4.914,2.62,2.62,0,0,0,10.052-4.5ZM2.689,2.631A4.081,4.081,0,0,0,4.329,2.3,4.418,4.418,0,0,0,5.7,1.37,4.333,4.333,0,0,0,6.628,0a4.1,4.1,0,0,0,.336-1.648A4.121,4.121,0,0,0,6.628-3.3,4.367,4.367,0,0,0,5.7-4.665a4.322,4.322,0,0,0-1.361-.921,4.136,4.136,0,0,0-1.652-.332,4.136,4.136,0,0,0-1.652.332,4.288,4.288,0,0,0-1.361.926A4.432,4.432,0,0,0-1.249-3.3a4.092,4.092,0,0,0-.336,1.652A4.092,4.092,0,0,0-1.249.008,4.432,4.432,0,0,0-.324,1.374,4.288,4.288,0,0,0,1.038,2.3,4.136,4.136,0,0,0,2.689,2.631ZM2.582,1.1A.679.679,0,0,1,2.1.909.616.616,0,0,1,1.9.44a.633.633,0,0,1,.2-.469.663.663,0,0,1,.481-.2.673.673,0,0,1,.49.2.633.633,0,0,1,.2.469.65.65,0,0,1-.2.469A.675.675,0,0,1,2.582,1.1Zm0-1.71A.576.576,0,0,1,2.2-.739.448.448,0,0,1,2.05-1.1v-.025a.89.89,0,0,1,.187-.589,2.233,2.233,0,0,1,.469-.415q.324-.232.51-.4A.541.541,0,0,0,3.4-2.955a.477.477,0,0,0-.174-.386.7.7,0,0,0-.465-.145.835.835,0,0,0-.427.1,1.35,1.35,0,0,0-.3.241q-.125.116-.237.216a.44.44,0,0,1-.3.1.51.51,0,0,1-.378-.137.467.467,0,0,1-.137-.344.814.814,0,0,1,.261-.6,1.794,1.794,0,0,1,.672-.4,2.583,2.583,0,0,1,.867-.145,1.961,1.961,0,0,1,1.295.407,1.281,1.281,0,0,1,.49,1.029,1.1,1.1,0,0,1-.129.56,1.423,1.423,0,0,1-.332.386q-.2.166-.444.332a2.3,2.3,0,0,0-.361.324.728.728,0,0,0-.162.382.472.472,0,0,1-.174.315A.614.614,0,0,1,2.582-.614Z" transform="translate(2 16)" fill="#2d73f8"/></svg>