<svg xmlns="http://www.w3.org/2000/svg" width="22" height="22"><path fill="none" d="M0 0h22v22H0z"/><path d="M6.086 18.557a3.076 3.076 0 001.714-.519 4.674 4.674 0 001.392-1.479 8.012 8.012 0 00.933-2.288 12.034 12.034 0 00.335-2.94 11.2 11.2 0 00-.583-3.782A6.166 6.166 0 008.3 5.017a3.209 3.209 0 00-2.217-.9 3.209 3.209 0 00-2.217.9 6.166 6.166 0 00-1.571 2.531 11.2 11.2 0 00-.583 3.782 12.021 12.021 0 00.335 2.94 8.027 8.027 0 00.933 2.289 4.668 4.668 0 001.392 1.479 3.077 3.077 0 001.714.519zm0-1.247a2.1 2.1 0 01-1.549-.753 5.4 5.4 0 01-1.13-2.1 10.439 10.439 0 01-.424-3.124 10.363 10.363 0 01.424-3.11 5.405 5.405 0 011.13-2.1 2.127 2.127 0 011.548-.762 2.127 2.127 0 011.569.75A5.337 5.337 0 018.788 8.2a10.425 10.425 0 01.424 3.127 10.366 10.366 0 01-.424 3.111 5.412 5.412 0 01-1.134 2.1 2.149 2.149 0 01-1.568.773zm-1.637-3.237a2.089 2.089 0 001.59-.632 2.319 2.319 0 00.6-1.664 2.309 2.309 0 00-.6-1.656 2.088 2.088 0 00-1.59-.632 2.087 2.087 0 00-1.589.632 2.309 2.309 0 00-.6 1.656 2.319 2.319 0 00.6 1.664 2.088 2.088 0 001.589.632zM3.827 11.5a.419.419 0 01-.327-.242.7.7 0 01-.067-.474.735.735 0 01.229-.419.421.421 0 01.378-.121.455.455 0 01.328.253.65.65 0 01.055.462.717.717 0 01-.217.42.418.418 0 01-.379.121zm12.154 7.057a3.075 3.075 0 001.714-.519 4.673 4.673 0 001.391-1.479 8.022 8.022 0 00.933-2.289 12.019 12.019 0 00.335-2.94 11.2 11.2 0 00-.583-3.782A6.171 6.171 0 0018.2 5.017a3.208 3.208 0 00-2.217-.9 3.208 3.208 0 00-2.218.9 6.167 6.167 0 00-1.575 2.531 11.2 11.2 0 00-.583 3.783 12.034 12.034 0 00.335 2.94 8.012 8.012 0 00.932 2.288 4.674 4.674 0 001.392 1.479 3.076 3.076 0 001.715.519zm0-1.257a2.11 2.11 0 01-1.564-.751 5.405 5.405 0 01-1.129-2.1 10.4 10.4 0 01-.424-3.12 10.361 10.361 0 01.424-3.11 5.409 5.409 0 011.129-2.1 2.112 2.112 0 011.564-.755 2.1 2.1 0 011.557.754 5.406 5.406 0 011.13 2.1 10.351 10.351 0 01.424 3.115 10.385 10.385 0 01-.424 3.118 5.409 5.409 0 01-1.13 2.1 2.107 2.107 0 01-1.557.749zm-1.652-3.227a2.112 2.112 0 001.6-.632 2.3 2.3 0 00.607-1.664 2.292 2.292 0 00-.607-1.656 2.112 2.112 0 00-1.6-.632 2.1 2.1 0 00-1.59.632 2.292 2.292 0 00-.607 1.656 2.3 2.3 0 00.607 1.664 2.1 2.1 0 001.59.632zm-.615-2.573a.441.441 0 01-.325-.245.653.653 0 01-.059-.47.751.751 0 01.221-.419.413.413 0 01.379-.121.423.423 0 01.325.249.7.7 0 01.058.466.76.76 0 01-.22.42.409.409 0 01-.379.12z" fill="#2b2b2b"/></svg>