<svg xmlns="http://www.w3.org/2000/svg" width="32" height="32" viewBox="0 0 32 32"><rect width="32" height="32" fill="none"/><path d="M.551-12.926-1.159-11.2a5.676,5.676,0,0,1,1.738.407,3.937,3.937,0,0,1,1.242.831A4.79,4.79,0,0,1,3.09-7.859,4.252,4.252,0,0,1,3.1-5.569a4.685,4.685,0,0,1-1.259,2.09L-1.9.244a4.722,4.722,0,0,1-2.09,1.264,4.255,4.255,0,0,1-2.289,0A4.682,4.682,0,0,1-8.371.249,4.79,4.79,0,0,1-9.639-1.856a4.218,4.218,0,0,1,0-2.289A4.737,4.737,0,0,1-8.377-6.236l1.923-1.921A4.451,4.451,0,0,1-6.8-9.478a4.125,4.125,0,0,1,.069-1.366L-9.957-7.637a6.913,6.913,0,0,0-1.838,3.045,6.152,6.152,0,0,0,0,3.343A6.9,6.9,0,0,0-9.946,1.813a6.918,6.918,0,0,0,3.072,1.86,6.158,6.158,0,0,0,3.341,0A6.881,6.881,0,0,0-.5,1.836L3.41-2.078A6.909,6.909,0,0,0,5.253-5.125a6.154,6.154,0,0,0,0-3.342A6.86,6.86,0,0,0,3.4-11.528a4.56,4.56,0,0,0-1.179-.857A6.1,6.1,0,0,0,.551-12.926Zm-1,9.468L1.26-5.182A5.667,5.667,0,0,1-.477-5.589a3.982,3.982,0,0,1-1.244-.829A4.771,4.771,0,0,1-3-8.525a4.211,4.211,0,0,1,0-2.289A4.733,4.733,0,0,1-1.734-12.9l3.725-3.723a4.777,4.777,0,0,1,2.1-1.266,4.227,4.227,0,0,1,2.283,0,4.741,4.741,0,0,1,2.1,1.27,4.75,4.75,0,0,1,1.266,2.1,4.219,4.219,0,0,1,0,2.289,4.721,4.721,0,0,1-1.264,2.09L6.557-8.227A4.55,4.55,0,0,1,6.9-6.9a4.117,4.117,0,0,1-.069,1.364l3.226-3.21A6.905,6.905,0,0,0,11.9-11.793a6.154,6.154,0,0,0,0-3.342A6.925,6.925,0,0,0,10.049-18.2a6.948,6.948,0,0,0-3.073-1.86,6.147,6.147,0,0,0-3.34,0A6.914,6.914,0,0,0,.588-18.208l-3.9,3.9a6.9,6.9,0,0,0-1.844,3.048,6.164,6.164,0,0,0,0,3.341A6.852,6.852,0,0,0-3.3-4.856,4.616,4.616,0,0,0-2.115-4,6.026,6.026,0,0,0-.45-3.458Z" transform="translate(16 24)" fill="#2b2b2b"/></svg>