<svg xmlns="http://www.w3.org/2000/svg" width="110" height="110" viewBox="0 0 110 110"><g transform="translate(-140 -254)"><circle cx="55" cy="55" r="55" transform="translate(140 254)" fill="none"/><path d="M26.559,26.716ZM4.782,46.365a1.6,1.6,0,0,1-1.455-.84,1.525,1.525,0,0,1,0-1.679L25.047,6.34a1.681,1.681,0,0,1,2.911,0l21.72,37.506a1.525,1.525,0,0,1,0,1.679,1.6,1.6,0,0,1-1.455.84Zm21.944-25.3a1.627,1.627,0,0,0-1.679,1.679v9.181a1.68,1.68,0,1,0,3.359,0V22.742a1.627,1.627,0,0,0-1.679-1.679Zm0,18.753a1.628,1.628,0,1,0-1.2-.476A1.631,1.631,0,0,0,26.726,39.816ZM7.693,43.006H45.312L26.5,10.538Z" transform="translate(168.498 280.5)" fill="#2d73f8"/></g></svg>