<svg xmlns="http://www.w3.org/2000/svg" width="32" height="32" viewBox="0 0 32 32"><rect width="32" height="32" fill="none"/><path d="M.047,3.493a11.211,11.211,0,0,0,4.481-.9A11.779,11.779,0,0,0,8.234.079,11.858,11.858,0,0,0,10.75-3.627a11.152,11.152,0,0,0,.91-4.481,11.152,11.152,0,0,0-.91-4.481,11.791,11.791,0,0,0-2.516-3.7A11.906,11.906,0,0,0,4.528-18.8a11.179,11.179,0,0,0-4.492-.91,11.112,11.112,0,0,0-4.475.91,11.856,11.856,0,0,0-3.695,2.51,11.838,11.838,0,0,0-2.51,3.7,11.152,11.152,0,0,0-.91,4.481,11.152,11.152,0,0,0,.91,4.481A11.906,11.906,0,0,0-8.134.079a11.713,11.713,0,0,0,3.7,2.51A11.211,11.211,0,0,0,.047,3.493Zm0-2.291A9.158,9.158,0,0,1-3.575.483a9.248,9.248,0,0,1-2.965-2A9.377,9.377,0,0,1-8.533-4.481a9.146,9.146,0,0,1-.719-3.627,9.158,9.158,0,0,1,.719-3.622A9.406,9.406,0,0,1-6.545-14.7a9.183,9.183,0,0,1,2.959-2,9.158,9.158,0,0,1,3.622-.719,9.146,9.146,0,0,1,3.627.719,9.4,9.4,0,0,1,2.97,2,9.268,9.268,0,0,1,2,2.97,9.158,9.158,0,0,1,.719,3.622,9.146,9.146,0,0,1-.719,3.627A9.377,9.377,0,0,1,6.645-1.516a9.248,9.248,0,0,1-2.965,2A9.186,9.186,0,0,1,.047,1.2ZM-.2-5.874a1.092,1.092,0,0,0,.736-.236.8.8,0,0,0,.3-.573.23.23,0,0,0,.011-.073v-.062a1.2,1.2,0,0,1,.314-.764,4.176,4.176,0,0,1,.854-.685,6.685,6.685,0,0,0,1.32-1.123,2.293,2.293,0,0,0,.5-1.561,2.505,2.505,0,0,0-.505-1.583,3.227,3.227,0,0,0-1.342-1A4.7,4.7,0,0,0,.16-13.881a4.515,4.515,0,0,0-2.386.573,2.583,2.583,0,0,0-1.2,1.359,1.76,1.76,0,0,0-.084.286,1.516,1.516,0,0,0-.028.3.807.807,0,0,0,.27.64.911.911,0,0,0,.618.236,1.046,1.046,0,0,0,.522-.124,1.193,1.193,0,0,0,.376-.337l.18-.236a2.245,2.245,0,0,1,.432-.511,1.829,1.829,0,0,1,.528-.32,1.692,1.692,0,0,1,.623-.112,1.629,1.629,0,0,1,1.106.365,1.184,1.184,0,0,1,.421.938,1.178,1.178,0,0,1-.354.876,8.26,8.26,0,0,1-1.073.842,4.576,4.576,0,0,0-.994.9,1.948,1.948,0,0,0-.387,1.258v.124Q-1.267-5.874-.2-5.874ZM-.222-2.426A1.333,1.333,0,0,0,.71-2.774a1.148,1.148,0,0,0,.382-.887A1.148,1.148,0,0,0,.71-4.548,1.333,1.333,0,0,0-.222-4.9a1.321,1.321,0,0,0-.932.354,1.152,1.152,0,0,0-.382.882,1.145,1.145,0,0,0,.387.882A1.327,1.327,0,0,0-.222-2.426Z" transform="translate(16 24)" fill="#2b2b2b"/></svg>