<svg xmlns="http://www.w3.org/2000/svg" width="198" height="104.492"><defs><clipPath id="prefix__a"><path fill="#fab60c" d="M0 0h100v100H0z"/></clipPath></defs><g clip-path="url(#prefix__a)" transform="translate(52.75 2.5)"><path d="M0 50a50 50 0 1150 50A50 50 0 010 50" fill="#fab60c"/><path d="M76.16 7.325A50.007 50.007 0 017.867 76.874 50 50 0 1076.16 7.325" fill="#f2ad00"/><path d="M6.795 55.275a46.421 46.421 0 0183.22-28.3 46.425 46.425 0 10-77.051 51.437 46.207 46.207 0 01-6.169-23.137" fill="#ffd95f" opacity=".47"/><path d="M53.478 23.75l6.164 12.49a3.881 3.881 0 002.921 2.123l13.784 2a3.88 3.88 0 012.15 6.618l-9.974 9.722a3.88 3.88 0 00-1.116 3.434l2.355 13.728a3.88 3.88 0 01-5.63 4.09l-12.328-6.481a3.88 3.88 0 00-3.611 0l-12.328 6.481a3.88 3.88 0 01-5.63-4.09l2.355-13.728a3.88 3.88 0 00-1.116-3.434L21.5 46.981a3.88 3.88 0 012.151-6.618l13.783-2a3.88 3.88 0 002.921-2.123l6.164-12.49a3.88 3.88 0 016.959 0" fill="#fff"/></g><g transform="translate(-76 -85)"><circle cx="4" cy="4" r="4" transform="translate(76 111.5)" fill="#fcab02"/><circle cx="6" cy="6" r="6" transform="translate(106.75 85)" fill="#ffd8d9"/><circle cx="5" cy="5" r="5" transform="translate(85 162.492)" fill="#fff0d8"/><circle cx="3" cy="3" r="3" transform="translate(252.999 126.992)" fill="#fff0d8"/><path d="M111.2 187.946v-1.154h-1.155a1.546 1.546 0 010-3.092h1.155v-1.163a1.546 1.546 0 013.092 0v1.155h1.162a1.546 1.546 0 110 3.092H114.3v1.162a1.546 1.546 0 11-3.092 0z" fill="#fcab02"/><path d="M98.5 141.992v-1.5H97a2 2 0 110-4h1.5v-1.5a2 2 0 114 0v1.5h1.5a2 2 0 110 4h-1.5v1.5a2 2 0 11-4 0z" fill="#ffd8d9"/><circle cx="5" cy="5" r="5" transform="translate(261 105.5)" fill="#fcab02"/><path d="M236.5 94v-1.5H235a2 2 0 110-4h1.5V87a2 2 0 114 0v1.5h1.5a2 2 0 110 4h-1.5V94a2 2 0 11-4 0z" fill="#fff0d8"/><circle cx="3" cy="3" r="3" transform="translate(242.999 182.242)" fill="#fcab02"/><circle cx="5" cy="5" r="5" transform="translate(264 157.492)" fill="#ffd8d9"/></g></svg>
