<svg xmlns="http://www.w3.org/2000/svg" width="322" height="322" viewBox="0 0 322 322"><g transform="translate(6 6)"><g transform="translate(-40 -267)" opacity="0.8"><g transform="translate(12 12)"><g transform="translate(167 394)"><line y2="32" transform="translate(16)" fill="none" stroke="#000" stroke-linecap="round" stroke-width="16"/><line y2="32" transform="translate(32 16) rotate(90)" fill="none" stroke="#000" stroke-linecap="round" stroke-width="16"/></g><g transform="translate(167 394.247)"><line y2="32" transform="translate(16 -0.247)" fill="none" stroke="#fff" stroke-linecap="round" stroke-width="6"/><line y2="32" transform="translate(32 15.753) rotate(90)" fill="none" stroke="#fff" stroke-linecap="round" stroke-width="6"/></g></g><g transform="translate(0 -51)"><g transform="translate(5878 2879)" fill="#fff" stroke-linecap="round" stroke-linejoin="round"><path d="M -5825.400390625 -2526 L -5828.400390625 -2526 L -5838 -2526 L -5841 -2526 L -5841 -2529 L -5841 -2551.400390625 L -5841 -2561 L -5841 -2564 L -5838 -2564 L -5806 -2564 L -5803 -2564 L -5803 -2561 L -5803 -2551.400390625 L -5803 -2548.400390625 L -5806 -2548.400390625 L -5825.400390625 -2548.400390625 L -5825.400390625 -2529 L -5825.400390625 -2526 Z" stroke="none"/><path d="M -5828.400390625 -2529 L -5828.400390625 -2551.400390625 L -5806 -2551.400390625 L -5806 -2561 L -5838 -2561 L -5838 -2529 L -5828.400390625 -2529 M -5828.400390625 -2523 L -5838 -2523 C -5841.3134765625 -2523 -5844 -2525.686279296875 -5844 -2529 L -5844 -2561 C -5844 -2564.313720703125 -5841.3134765625 -2567 -5838 -2567 L -5806 -2567 C -5802.6865234375 -2567 -5800 -2564.313720703125 -5800 -2561 L -5800 -2551.400390625 C -5800 -2548.086669921875 -5802.6865234375 -2545.400390625 -5806 -2545.400390625 L -5822.400390625 -2545.400390625 L -5822.400390625 -2529 C -5822.400390625 -2525.686279296875 -5825.0869140625 -2523 -5828.400390625 -2523 Z" stroke="none" fill="#000"/></g><g transform="translate(40 596)" fill="#fff" stroke-linecap="round" stroke-linejoin="round"><path d="M 35 35 L 32 35 L 0 35 L -3 35 L -3 32 L -3 22.400390625 L -3 0 L -3 -3 L 0 -3 L 9.599610328674316 -3 L 12.59961032867432 -3 L 12.59961032867432 0 L 12.59961032867432 19.400390625 L 32 19.400390625 L 35 19.400390625 L 35 22.400390625 L 35 32 L 35 35 Z" stroke="none"/><path d="M 0 0 L 0 32 L 32 32 L 32 22.40038871765137 L 9.599611282348633 22.40038871765137 L 9.599611282348633 0 L 0 0 M 0 -6 L 9.599611282348633 -6 C 12.91332244873047 -6 15.59961128234863 -3.313709259033203 15.59961128234863 0 L 15.59961128234863 16.40038871765137 L 32 16.40038871765137 C 35.31371307373047 16.40038871765137 38 19.08667755126953 38 22.40038871765137 L 38 32 C 38 35.31371307373047 35.31371307373047 38 32 38 L 0 38 C -3.313709259033203 38 -6 35.31371307373047 -6 32 L -6 0 C -6 -3.313709259033203 -3.313709259033203 -6 0 -6 Z" stroke="none" fill="#000"/></g><g transform="translate(350 350) rotate(180)" fill="#fff" stroke-linecap="round" stroke-linejoin="round"><path d="M 35 35 L 32 35 L 0 35 L -3 35 L -3 32 L -3 22.400390625 L -3 0 L -3 -3 L 0 -3 L 9.599610328674316 -3 L 12.59961032867432 -3 L 12.59961032867432 0 L 12.59961032867432 19.400390625 L 32 19.400390625 L 35 19.400390625 L 35 22.400390625 L 35 32 L 35 35 Z" stroke="none"/><path d="M 0 0 L 0 32 L 32 32 L 32 22.40038871765137 L 9.599611282348633 22.40038871765137 L 9.599611282348633 0 L 0 0 M 0 -6 L 9.599611282348633 -6 C 12.91332244873047 -6 15.59961128234863 -3.313709259033203 15.59961128234863 0 L 15.59961128234863 16.40038871765137 L 32 16.40038871765137 C 35.31371307373047 16.40038871765137 38 19.08667755126953 38 22.40038871765137 L 38 32 C 38 35.31371307373047 35.31371307373047 38 32 38 L 0 38 C -3.313709259033203 38 -6 35.31371307373047 -6 32 L -6 0 C -6 -3.313709259033203 -3.313709259033203 -6 0 -6 Z" stroke="none" fill="#000"/></g><g transform="translate(350 628) rotate(180)" fill="#fff" stroke-linecap="round" stroke-linejoin="round"><path d="M 12.59961032867432 35 L 9.599610328674316 35 L 0 35 L -3 35 L -3 32 L -3 9.599610328674316 L -3 0 L -3 -3 L 0 -3 L 32 -3 L 35 -3 L 35 0 L 35 9.599610328674316 L 35 12.59961032867432 L 32 12.59961032867432 L 12.59961032867432 12.59961032867432 L 12.59961032867432 32 L 12.59961032867432 35 Z" stroke="none"/><path d="M 9.599611282348633 32 L 9.599611282348633 9.599611282348633 L 32 9.599611282348633 L 32 0 L 0 0 L 0 32 L 9.599611282348633 32 M 9.599611282348633 38 L 0 38 C -3.313711166381836 38 -6 35.3137092590332 -6 32 L -6 0 C -6 -3.313711166381836 -3.313711166381836 -6 0 -6 L 32 -6 C 35.3137092590332 -6 38 -3.313711166381836 38 0 L 38 9.599611282348633 C 38 12.91332244873047 35.3137092590332 15.59961128234863 32 15.59961128234863 L 15.59961128234863 15.59961128234863 L 15.59961128234863 32 C 15.59961128234863 35.3137092590332 12.91332244873047 38 9.599611282348633 38 Z" stroke="none" fill="#000"/></g></g></g></g></svg>
