<svg xmlns="http://www.w3.org/2000/svg" xmlns:xlink="http://www.w3.org/1999/xlink" width="256" height="256" viewBox="0 0 256 256"><defs><radialGradient id="a" cx="0.386" cy="0.227" r="0.722" gradientTransform="matrix(0.392, 0.92, -0.92, 0.392, 0.443, -0.217)" gradientUnits="objectBoundingBox"><stop offset="0" stop-color="#fff"/><stop offset="1" stop-color="#cbcbcb"/></radialGradient></defs><g transform="translate(-10245 -3642)"><circle cx="128" cy="128" r="128" transform="translate(10245 3642)" fill="url(#a)"/><path d="M128,2a126.94,126.94,0,0,0-25.4,2.56A125.3,125.3,0,0,0,57.554,23.518,126.374,126.374,0,0,0,11.9,78.956,125.35,125.35,0,0,0,4.56,102.6a127.248,127.248,0,0,0,0,50.791,125.3,125.3,0,0,0,18.958,45.051A126.374,126.374,0,0,0,78.956,244.1,125.35,125.35,0,0,0,102.6,251.44a127.248,127.248,0,0,0,50.791,0,125.3,125.3,0,0,0,45.051-18.958A126.374,126.374,0,0,0,244.1,177.044,125.35,125.35,0,0,0,251.44,153.4a127.248,127.248,0,0,0,0-50.791,125.3,125.3,0,0,0-18.958-45.051A126.374,126.374,0,0,0,177.044,11.9,125.35,125.35,0,0,0,153.4,4.56,126.94,126.94,0,0,0,128,2m0-2A128,128,0,1,1,0,128,128,128,0,0,1,128,0Z" transform="translate(10245 3642)" fill="#2b2b2b"/><path d="M9.293.707a1,1,0,0,1,1.414,0l7.586,7.586A1,1,0,0,1,17.586,10H2.414a1,1,0,0,1-.707-1.707Z" transform="translate(10493 3760) rotate(90)" fill="#2b2b2b"/><path d="M9.293.707a1,1,0,0,1,1.414,0l7.586,7.586A1,1,0,0,1,17.586,10H2.414a1,1,0,0,1-.707-1.707Z" transform="translate(10253 3780) rotate(-90)" fill="#2b2b2b"/><path d="M9.293.707a1,1,0,0,1,1.414,0l7.586,7.586A1,1,0,0,1,17.586,10H2.414a1,1,0,0,1-.707-1.707Z" transform="translate(10383 3890) rotate(180)" fill="#2b2b2b"/><path d="M9.293.707a1,1,0,0,1,1.414,0l7.586,7.586A1,1,0,0,1,17.586,10H2.414a1,1,0,0,1-.707-1.707Z" transform="translate(10363 3650)" fill="#2b2b2b"/></g></svg>
