<svg xmlns="http://www.w3.org/2000/svg" xmlns:xlink="http://www.w3.org/1999/xlink" width="140" height="140" viewBox="0 0 140 140"><defs><radialGradient id="a" cx="0.386" cy="0.227" r="0.722" gradientTransform="matrix(0.392, 0.92, -0.92, 0.392, 0.443, -0.217)" gradientUnits="objectBoundingBox"><stop offset="0" stop-color="#a0a0a0"/><stop offset="1" stop-color="#2b2b2b"/></radialGradient></defs><g transform="translate(-11067 -3776)"><circle cx="70" cy="70" r="70" transform="translate(11067 3776)" fill="url(#a)"/><path d="M70,1A68.673,68.673,0,0,0,31.422,12.784a69.2,69.2,0,0,0-25,30.359,68.908,68.908,0,0,0,6.362,65.435,69.2,69.2,0,0,0,30.359,25,68.908,68.908,0,0,0,65.435-6.362,69.2,69.2,0,0,0,25-30.359,68.908,68.908,0,0,0-6.362-65.435,69.2,69.2,0,0,0-30.359-25A68.567,68.567,0,0,0,70,1m0-1A70,70,0,1,1,0,70,70,70,0,0,1,70,0Z" transform="translate(11067 3776)" fill="#2b2b2b"/></g></svg>