<svg xmlns="http://www.w3.org/2000/svg" width="48" height="48" viewBox="0 0 48 48"><g transform="translate(48) rotate(90)"><g opacity="0.8"><rect width="48" height="48" rx="8" fill="#fff"/><path d="M8,2A6.007,6.007,0,0,0,2,8V40a6.007,6.007,0,0,0,6,6H40a6.007,6.007,0,0,0,6-6V8a6.007,6.007,0,0,0-6-6H8M8,0H40a8,8,0,0,1,8,8V40a8,8,0,0,1-8,8H8a8,8,0,0,1-8-8V8A8,8,0,0,1,8,0Z" fill="#cbcbcb"/></g><g transform="translate(14 14)"><path d="M11258.137,3015.074a1.492,1.492,0,0,1-1.049-.428l-10.217-10a1.5,1.5,0,0,1,0-2.144l10.217-10a1.5,1.5,0,1,1,2.1,2.144l-9.121,8.928,9.121,8.928a1.5,1.5,0,0,1-1.049,2.572Z" transform="translate(-11247.92 -2993.574)" fill="#2b2b2b"/><path d="M11293.119,2934.5h-20a1.5,1.5,0,0,1,0-3h20a1.5,1.5,0,0,1,0,3Z" transform="translate(-11273.119 -2923)" fill="#2b2b2b"/></g></g></svg>