<svg xmlns="http://www.w3.org/2000/svg" width="39.527" height="22.757" viewBox="0 0 39.527 22.757"><g transform="translate(-10706.236 -3566.243)"><path d="M21.879,2.121a3,3,0,0,1,4.243,0L42.879,18.879A3,3,0,0,1,40.757,24H7.243a3,3,0,0,1-2.121-5.121Z" transform="translate(10702 3565)" fill="#f0f0f0"/><path d="M24,2.243a1.987,1.987,0,0,0-1.414.586L5.828,19.586A2,2,0,0,0,7.243,23H40.757a2,2,0,0,0,1.414-3.414L25.414,2.828A1.987,1.987,0,0,0,24,2.243m0-1a2.991,2.991,0,0,1,2.121.879L42.879,18.879A3,3,0,0,1,40.757,24H7.243a3,3,0,0,1-2.121-5.121L21.879,2.121A2.991,2.991,0,0,1,24,1.243Z" transform="translate(10702 3565)" fill="#2b2b2b"/></g></svg>