<svg xmlns="http://www.w3.org/2000/svg" width="139" height="149" viewBox="0 0 139 149"><g transform="translate(-207 -220)"><rect width="139" height="149" rx="16" transform="translate(207 220)" fill="#fff"/><path d="M16,2A14,14,0,0,0,2,16V133a14,14,0,0,0,14,14H123a14,14,0,0,0,14-14V16A14,14,0,0,0,123,2H16m0-2H123a16,16,0,0,1,16,16V133a16,16,0,0,1-16,16H16A16,16,0,0,1,0,133V16A16,16,0,0,1,16,0Z" transform="translate(207 220)" fill="#f0f0f0"/><path d="M0,89.954H0a12,12,0,0,1-12-12V0A12,12,0,0,1,0-12,12,12,0,0,1,12,0V77.954A12,12,0,0,1,0,89.954Z" transform="translate(304.061 267.939) rotate(45)" fill="#f0f0f0"/><path d="M0,89.954a12,12,0,0,1-12-12V0A12,12,0,0,1,0-12,12,12,0,0,1,12,0V77.954A12,12,0,0,1,0,89.954Z" transform="translate(304.061 323.061) rotate(135)" fill="#f0f0f0"/></g></svg>