<svg xmlns="http://www.w3.org/2000/svg" width="139" height="149" viewBox="0 0 139 149"><g transform="translate(-52 -220)"><rect width="139" height="149" rx="16" transform="translate(52 220)" fill="#dedede"/><path d="M16,2A14,14,0,0,0,2,16V133a14,14,0,0,0,14,14H123a14,14,0,0,0,14-14V16A14,14,0,0,0,123,2H16m0-2H123a16,16,0,0,1,16,16V133a16,16,0,0,1-16,16H16A16,16,0,0,1,0,133V16A16,16,0,0,1,16,0Z" transform="translate(52 220)" fill="#2b2b2b"/><path d="M51,24A27,27,0,1,0,78,51,27.031,27.031,0,0,0,51,24M51,0A51,51,0,1,1,0,51,51,51,0,0,1,51,0Z" transform="translate(71 244)" fill="#2b2b2b"/></g></svg>